<mxfile host="app.diagrams.net" agent="Mozilla/5.0 (Windows NT 10.0; Win64; x64) AppleWebKit/537.36 (KHTML, like Gecko) Chrome/128.0.0.0 Safari/537.36 Edg/128.0.0.0" version="24.7.7">
  <diagram name="Page-1" id="9ArNoii6vibfhD1nUPNF">
    <mxGraphModel dx="1042" dy="613" grid="1" gridSize="10" guides="1" tooltips="1" connect="1" arrows="1" fold="1" page="1" pageScale="1" pageWidth="827" pageHeight="1169" math="0" shadow="0">
      <root>
        <mxCell id="0" />
        <mxCell id="1" parent="0" />
        <mxCell id="61uF1YbIP2I4fAmgQpX1-1" value="" style="shape=image;verticalLabelPosition=bottom;labelBackgroundColor=default;verticalAlign=top;aspect=fixed;imageAspect=0;image=data:image/png,iVBORw0KGgoAAAANSUhEUgAADwAAAAhwAgMAAADt0CPhAAAADFBMVEVHcEz/00I2c6VkZGQLizpWAAAAAXRSTlMAQObYZgAAZSxJREFUeNrs3TuOI7sVBuALddaBFqLIcQf21rQUhY3iBTEx7aB34H0wcOLc8IwerdJzmtUqirS/b3AxmoYaF5DwgzyHj/rjDwAAAAAAAAAAAAAAAAAAAAAAAAAA4H/B3/41nPn7v30q0L7/DLeFf/h8oFl/HX4vfPicoM/07skwNOVlKGMuDc1YDuWCjw16je8vf/rooLfJswhDO/LwLR8+QXiat+G7lMLQ4ezZIAzPtRweQyUM9a2GR3n3YUKP02fTaHiGxfBYax8pdFf+Hv3woUK3+ZVgqOV1mMPGBwvd5tcYDD3nV4Khz/pXLxrqWAyDBEOnXoZ5+YRhRjPn1+EkmNFq7gA72QCzeRvmt/ExwyyWQw1rHzT0WABrZEHPBbAyGObyOtTyw4cND/Yy1OPThgfLFQNsEg29TqB1ouHhqubXhix4qFXdAA8bHzk8zGKo7cOHDo+SqwfYXdHwKK9DfWsfOzzGE/KrjwUdD8D2Y0HHA7AhGHoegIdh46OHXgdgQzD0PAAbgqHjAdipJOh5ANaIhp4HYFUwfNPymQG2HQu+Z/XUANsRDd+xGAZDMBiAXa4D1Q3P5iuAyV6fHuCNLwGmyk8PsJUkmGoxPN/a1wDTvDUQYCtJMNHQAl8DTLJsIsAbXwRMsWoiwObQ0O8MWhsLJnltJMDm0NDtDNpSMPQ8gzaHhgmWzQTYHBq6nUFbCoaeZ9Dm0FBs0VCAzaGh0GtDAdaHhkJ5MIcGM2hzaPi/nkHbDw2FVk0F2EISFGkrvx6yAv2WwK6XhY5LYHNo6LkEtpAEHZfAw7DxnUCvJbCFJOi5BFYEQ8clsCIYOi6BFcHwZS8NBlgRDF+0bDDAimDot4elCIaOe1iKYOi4h6UIhi9aNBlgRTD028Mahg/fDPTaw9LFgo57WLpY0HEPSxcLvuSl0QDrYsEXLFoNsCIYuu1hudkOvuKt1QDrYsHvrQZdLOjWMOhigQDrYkF1CwGGfr22G2BdLOg4wLpY8DurdgMcfDvQb4C1oeF3Gs6vLhZ8L8DbPlK2mRLatPhKgt60oaG/AG+eXChrQ8N9r1/LjwBDbwEevW2pDQ0NWn2xAn3OJPrDFwQTA1zQ7LKOBE/x5RbwShsaOgrw2fS1fhUcBRimBvj961HXhobnWHx9F9SbAEM3AS54q3UkeI5lwdhnHQka81pwjmBlHQk6CfBHwWg9Yxv6h68Ibnsr6R5ZCIa2rEqCU3cOnQUYJgZ4XTTfnu1SLOtIMCXAV99ceSEpWQiG+8o2UFgIhh4C/Of1d+eqHWgBhmkB3pRNuC0EwzO8lMXmtXYPS4DhjkVZ5Vl9O3S0kwOKA/xeOOOesQre+JKguwDHQ4IFGEoDfDM19btYFoLhpmVh6/e1dgkswHDba5sBDoet0EMWYCgNcOmU21YsaCfAtx+s/VJ9M7QAQ2GA70xbqy8jCTAUBnhz+xdy1fSGn3/WviV4VIDrryMJMJQF+MftX3ir1YT+fCXAUJbHdWni55lEx2ArFpQH+KOFALvWDqYF+M4v1FkIDvslJAGGe1YtBjiOXgUBhrIA39u9WHEnR7QZGh4c4KongpPjSFBcA7cQ4OQ8IUwbgf+89xvVLqbc/4+iAEPRCLwpjvx8o3C0GRq6CnAataGz0wxw22ujI3ByIBgmBnhdPGbPUgL//JMFGB4a4Pp7KT98TdBNgPP5pkoBhk5HYCf6obcAhyH+KoCDE/0wIcAfrYzAWYDhsQFeVn88kgBDSYDv/sai8vgrwNBVgNM4vmnwgFHoJ8DpYiAWYOhqCp3CNslhF+iNrwn6CHA4fZ2TS7GgtxH4dD+WAENvAXavLPQZ4O28eTQECzD0NQKnz3I4CjB0N4VOn30sF0NDLwGOpymOptDQ1QgcLjdzCDA8LMDLSrPn+JlnAYaSAH8U/8Ycg/BhT0cUYCiJ4/q5AT4viwUY+grw/kBSUANDjyPwoY2VrQNDLwH+dRnW9h67k61YAgzdjMDp4miSAENJHO8mptLDzYJ1YOgywOG4DfrncJySAEMHAY5XBmAH+qGnEThd5lmAoSTA7/d+o0LdG0YVcBJg6CPAu7WjY3ijjRzQVYCPZxmiLjRMCvC940gVr8TaburQhYa+AhxcagczBbjKs83CyVO+BRiKArwu/YVHTJjD/vxRHtfDUYChhwBfFsDZCAxTAnwnMqu5G9B5e4Rw92CV3RAswNBDgG/EWoChKMB3FoKrn0UyAkM3Ac4XRxkEGEp7Ujffv5g1uWH06vCDJMDwqAAvK3SfTxaBHWaA4gCvC9//oLI3n4zJlpFgWoBvZmZVq3PlTizoK8DHJ5rlzwT/nEFnAYayAN9sQ1daP9rfL2sEhikBvtXFWtTIb3QaCb4X4I/rb1/O2Xy+tb4kwFAY4HXZ2x/cwwq7ObQRGKYFeFO7h3U4wHAyFscQNLGgPMDvdXtYcbQPK37e656NwDApwMMzelixcE0LBLikCJ6rBM4393IIMEwJ8KZuCXzyTIa8Pdb/GWwBhtIAv9csgS+m0fkzyjkIMBQHeKhfAu+Cu+9d5e2eSiMwTAvwul4JfFoHn/00CzCUB3hTuQT+VQTnsxm0ERgmBvhyDv1SextlFGCYGuB1xRl0Gg268WxFKQkwlAf4Ijd5/g0c+fDPcEiwK3VgUoDP59Bz96DTdiU4fp5m+PVXMIWGiQH+cfrWtxolcNbEgscE+GwvR60nMeTzVwIMEwJ82saa+almcbyX8hjiaB0YJgY4jN74Mnt+j7PpdJLjJMAwJcDjsW81d3zj7q90vNdODQzfCvDxaqxlpQI4jc4VJgGGbwX4sJS0GKpJ4wE4CzB8I8DD/PmN552rMGpnRQ83g28EeIh/+ef8g+759sk4jrcAw+QAVxL2l3Acw3toZyUBhmYDnE4fqXJlbi3A0GiAw9l1WOE0yUmAoYcp9Hj8zdFeaOguwFem1lmAofkA/0xrCsdu1mhhKQgwNB3gnD+r4DyeTEc3ckAnU+h01n7Ou58EU2hoPcD5OJH2aBXoJsA5nt9JmS5fCzC0PoUebeLYPhppl97tGUMBhuYDnEb/HYIcjcDQQYBTGp9gSKc33QkwtBvgOFr4TeeF8K85tABD61PodAzsyUkGxwmh9QBfWzyK+wZ1EmBoNMB5yGk4Of8bLnZiCTA0GeD02x9HAYbGp9AXG7Di6QsBhtabWDmfzKHH8RZgaDnA4WJXdA6jq3YEGBoMcB79la+E2V5oaH0EjuO45m1+8yi+2XlgaDfAeTTont8KndTA0HKA88UwfFEX24kFjTexriR7fN2sAEO7Ad6tHcV4GIpTcCMHdBHgfBHluN9hufsrRQGGNgO8DWk6Hj6KV/vTQYChwQDns4o3nrazjsEWYGgtwOHaeYbzrZRBDQzN1sDhMMjmqz+N+38JMLTZxLqcUYfjpe4/XwcjMDQd4HQseMP15rQAQ5sBPqY371pZ+fJIcBJgaH4Kff2Yg+OE0GqA0+1rdfb32rlSB9oMcLjYsrE9TBjCRR0swNBYgMPpfVjp+Hjv8x1Zno0EjdbAN+bPMexONaiBod0Ap5NX4bDue9gWnQ7TaAGGJkfg7eT5bNX3Yiu0AENjAb56FUe++i41MDQ4AueTl+Hwo3jZ7BJgaHEKHe91tY5taQGGxgKcRjutxotHaYjhM7r7290FGJpsYoWzi93TcQN0SodQJwGGJgM8qobD7WUmAYZGA5yvLRzF0YORBBgaC/D+9qt4dpvdrevdBRiaHIHzMIyv3tgFNp3MoD2ZAZoLcLz+MpwUwIenMwgwtDYCx6sHC3ePI3QrJbQb4HFA82ec08m0Oo+uyRJgaLEGTodT/P9l72yS5DhuMBqmwxsuFD6HjsCFQ0fQwrxkIQIHgG8EXcLsrspMZFZ1z3RXko1WvBchajg98sLUJwBf4mfognZhqR1AbgGLDGK2wd+6DAULjRwA6QSsR09GP0TrwZQ2NnIApE6ha6iVkFHvIjECBkgn4HUjtA7GlgdL2i4d0ZdvIWCAPAIuh1Pa/dBbfViKiQWQN4XWG1MMl2pYcaEBsgrYQqfk+mURrOtO4wgYIF8E3vdimfUrdrbfIWCAjCl0v5LD2moO64b9ETBATgH7vQ90Pf1NBAZII2BbbWgL8rWjkyolh/4fERggYQS2MLIwfuLdqD8CBsgmYA0z/FaGf7WMBDvDDABZBez3pwxl+BYCBkgjYB0WuB+vdTdrOTQCBkhXA28dV9skQ+iuHFfcOQIGSCJgiV9pH3utfmlh6tCJwABJBKyxbUNv9GVtBlc1uRAwQLIU2vZR2YrBpfETjpsB5BKwLbLsk2eL48FF1cpSO4CcJpZ2w8HdYvfe2ULAAHkE3DbJlu6Nw6dhEd6BAXJGYDnealcdLIkhGQEDpBCw9A6WhJjsyxCY28cIGCBLBJajlyOLi6IHlTsCBsiVQo/dzuWUmWkoi0twdgQM8Mv48lhTh9lhP4esVjTjhABpBGztaqjcXsbRKRgBA/xS/vnQLMPY/nwNwvE8Awe+ATKl0Jcyt98da90LcSmCL21ZSgQGyFkDS5xMkjpJqKuXxUYOgHQptB6N8vvxoo6aXRsCBsgWgbfw67Zzpse7wURggBwR+LCfo5OubCFa6u1CQ8AAGSJwvUZoW8GrR8s5YivW2pyFgAFeH4G3yV/t9l1tr0ZjWayxXEbAANlq4EHG5de2IXo7cUYNDJCvBh7S5a2tsuq3i9wIGCBFBLawzM53SvZ4NlhqGCYCA7w+AnvfeOVxybveFT0CBshRA8euSQ8+dB+LvT+QhIABMtXA3SjSdovQ2xvTUr4jTCMBZIrA9w+dWZ9nK9NIAHkisA6LdLQ7+i1XG8t7e/oytmQIGCBJBLbjE8AHYlemkQBy1cDj9pwacb0+//6oj3+I3BgnBMgVgb3pV5twF5NgTtt+d7QjYIBXR+Bdx7PfM7S0Uz0CBkhSAx+9DMvSXfeWZkFzWgUgUQ18NbCO2zfc4kWVNozEMxJAjghsrRS+jhFafC+qXlZYT7meLjQEDJAjAu8GGOzGeo54KgkBA7w0AssHL0o1j5b6iQjPSAC5IvDuiorXScKljDCUXVjt5xEwwKtrYF87nT2+GHlYDy37l+BV0YaAAdLUwBfvSuT+u5LXA+DCSh2ADBH4XlK9PSBp/ZZ2tTMCBnhtBJbdb2R3i/DyRGydQe3sxAJ4fQS2eoIwrs+R9bVIDy6v9MeREDBAghrYgg+tIQRbF45lsKwNAQMkqoHl7guTlSsrWm8nIWCABBG4O+IdLgHvJN1tfGcaCeDFEbivc8tOjrhCx8KBJBvGCxEwwKsjsN7coaNhnFCuGytNy5p3f0TA//g3/+8D/MQa2Nqvrt0y2VWtelQrWxDwv75/wB/8AQDMj8Bl27O1DLk7i+T9Giwt2rbexPpQwN//y58AwNQIrEc21ofXvrdO6eVBAX//zh8BwPQaOB4QbY/BYfJo3dQhm8olLNl5UMCk0QA/pwZewqKcwyCt3aCD7lzoTwkYBQPMi8C6f+zVa4eGhjh71Iy1Lc/ShwVMFg0wOQJ73Hw1fhLPAZuGKeHr1ujHBYyTBTCzBpbw18fXR4cjSo8L+Puf/DkA/IwauCzQiV6V6RCYq9btSQFTBsOb858lHfKJy99Wbq40OfszAqYMhnfmWx7Z9h7W1raxes0elk925rO0kw3+XAQmiYa/WRn6OiycX+jD8Kps39qgVftBYX++BiYEw/vyNWXyLL3zLLd+TneNH88JGCcaSJ9/QhRu9a2Fq99BwVHc1x08zwkYHwvQ74wK+MYRUek0rEM3R72bpM+m0IRgIH+eqmTT/TSDHy3DumyDVjlZAxOC4Q35bcmM9iF5ff7V2nbl4TkpxOdnBUwIhnfjSz7R+uozD8o124fg2OER7o76swImBMO7kTTs1r+GhbG700njzIOdicCEYMDAmtuFJUfGtMeYW39jV53bGQHzFgwUwPOF7HsNazeopJt6twn/5wX8J/9OAAn0tFektshO22ngGnPL4QYbvGp9XsCEYCCBnjvGMCbRcqvxQ5cT44TYWPB2fEkrXRsvd99eeSfbclkJRwxPCBgbC96G3zM+IYWvbGyttFgTix4tp9Tne6EJwYCDNUXFPp4mXL9o6ylFwhIOD9MP+vBid2wseFM8vQNt6/Sv3dgQXS8xlC6PcvzsjICxsYAAfDqN1v0oUnhHkqOKOHzzlIDJoYEAPH20UEPc/avp9vrOZGZhXdZZAWNjAQF4xmuw347KoR3L2zbZORGYHBoIwKdtaLv1xPRXGOi3XZ/lNd/2cwImh4b8fFkSl8Bal+jo0ptYvvQDhN4H5i2TPidgcmjIz++JE2ivfy/LckwOl3VItLG2HXena2ByaCAAn1+E5YfbsUKZrPGVWDpRnxQwOTRk59uSGxunkSRIWsOeDh/6t/TkMAO9HPAO5M2dfec+NyFL9amCwGVpR4O3HuqTAiaHhuR8zR1/g0YHs9zKzQYtW++2WcKYUZ8WMDk05OYtmji0bdLRO1m26q4p66yAyaEBC+tc7ev7eWAdf+xwGElPDjPwkARYWBPEa/2uOisZs9RPpOzVWUcZtEXrswKmCAYsrDMD/VoVqnrjp+z2Ip7zAiaHBjLoCTux+g/q7iuXXdgWKedFf/xyWsDk0JCY33ObV75IvxbahqcmD+3Q24fdoSQ5LWByaCCDPrnRrqyJHTuxZHxesvocXD44L+A/+LcEsvL1LdJnH+0tXfpL3mX7nYXQu33rvIApgoEM+okRhmEtdDOct70c3QP2X20/h5fVOj6lBqYIBjLoJ3NnP158VaK03E25J7nQFMFABv1sILa4kkM67XopgHWreUU2+6rE7xnDDBTBQAZ9ogS2doGh3QEO9e/RHrtymPD6AxMETBEMZNDPatj2I4J9xizLInWvXX99VOak0BTBkJMvy5vgUbr9q28/c+ixd2tWDUwRDDn5lti/utOIVQ0s75ZyeJdK27a+coaAKYKBDPrxcYbNjvKaGOsy3DqzTvKbpq1pf8YwA0UwkEHPex2Ote/hHGH3HwGdImCKYMjI1/xSLd3O25uvjg1al3rYZJgK1stiO5n3DkwRDCn5PXEJbNGL7jqgzXa7KU3a+68PhtYUAVMEAyXwtLEGiwMLwY1ew3R7UbLLLwgYKIFfk0ebLd2uK91L2sd2Sg/90LMaOXCxICPfEovXqgajQnVc1eE3uqRDbJ4iYFwsyIe/S94sO4XG5g0tKzqsdnm4156sOTUwLhaQQT/WxtEcKelm930ofaVNB28H0EpDx7WPY04EpgiGdPyWOoG+Jez6rmTx0srxS5ROM7EogiEdmbdhDZ6V7tJn78YcJLwmdUWzzBIwRTBQAj/V0RG3TupBB6WXWNxVyvWfMgQMlMCvyKLjEZX9Ruhtw07V9P4Mmq3nWOYIGBcLKIEfG+W/M48kg2ptnWDQMvoQGysnCRgXCyiBn8uhy0ORj+6W9T0d7QFZ6viwzxIwLhZQAj82y6BdHN5+J9Lf817KjsqgaYvjSJMETBEMqfhn3kdgL7dTqmq1SrXturKodx26ttaOaZ+YQiNgwMN6rhI+fCb20k7pvV53PtgkAeNiQSq+vkcJHGaQtH3HLDRbHehdJx74xsUCPKwnp5Hkw4hsdS+HrzHZRdYc3LZMe5aAcbEgE9nz5zrVK21DbMmY+14NCQPBsTK+PANP68RCwEAJ/OwGrGJAbzcapNlVvuzOr4zN0bMEjIsFlMCfDMB6x9LyfUJdr4lqe2uqPzVLwLhYQAn8WfHqONZ/HJH9SOGy/aNrJawIGP6GZJ9k6I8vHK7lWM8XXjuupBXCO71PEzA2NOBhfVq70jqwvAjS6qXCWOVK7N64Rl6PEp8mYFwswMP6tHG1n+qX/TSSh2mkkm9bW+RxnUVEwICH9Zo2LBll7VrGfr3/eW/9k+V5eLsVPK8GxoYGPKyH+7BsCMxtFaV0tbB0W3d+wjMSLhbgYT0Qg3Vp22O7Bo4hydYPmqkRMOBhvUS/ejj8a+sajtW68q5EtvaEfLG8fuTRM2tgbGjAw/pIt7L1W+lnJpTcduXy6GxNrIFxsQAP69Gejn5IUMIy6DD2b61/cryY5AsChr8d3/LODsqdkcLwMBy3YlndpmP9g5Tp1BoYGxowoT8/A1yHFexS8Fr8rL716tIfIC2etf8MFxoXC/CwTrd6yO5BybrHo6v7dR1YsmtQRsCAh/VLWYWnuyfgY1/Lm3y9LKO0sHB2ooCxoSEFvyUX79hZ6WF2YW3DsqFjY1s+632HtExOoXGxABP6M6XvvhvaxpGk0k35165rOizikanPSAgY8LA+pWIb1sfqHcHLElZD9wPCPjkCY0MDHtaDM0ltvFDrFFJ7Q3INBbC2FyfbvlRBwICAX9PHYQePwt7MaD9OwCW0UE+OwNjQgAl9N3f2oMQ46WvL0PQc5eyroKX8T1gpmq/PxwgY8LB++SjwYdnb2jl0dKy1/VfAO/9rponFOxIg4LtPSKXLyoscL1Wu1WF9uUbVbg7JZDnuvywXhGcKGBsaMKE/7V4Njc22E7wd/KAV7frmayFgwMP65Tr2DzReTGlr3ZWX8d9+FFF04nEzbGhAwB93cUTr2WXX1GHxuNn/2bt25MiOHDjShBwZ8uYSPIIsHqEd3UdHkal42EDIhjXH2QAvsf3qC1RVN7mKet01j5mxmmGzH2lsdA5QQGZWDbC01436XB0GgQEMoZ9BaOrpyH3qjvMhucm0zF8jYQwNYIb1IUMw1UIc7ktRy986fqac4+F/Rfw28+wzMAgMgMAf6qNd50y2/qrJ6yD7KF1PwdQKKueegbFHAjCEfmeNdHdFzMEvqEw359ZacjsOOAODwMDzocvOnqU00WklzK3CQw3b2ZTi9kZDqYrpqQS+4OMDYAj9ESVW99KsjfrkHWpV1GlYTSAwgCH0Y4nLrqUWqd310FWoRaQl3eXe+9tTCYw9EgACv3v8ZaOETDPncVa0anMI1jK9lpy3AwIDGEI/VVQpjtlXYusOc9uKlr1v2h8F0lOYaNFUAmOPBIDANylL5VZgzcZC00DTqG6rD/IYtOQgMHAqLG5l0DttNsV7RVVcOtaNCI9sYppL4Fd8gIDnQhdunKmpnnRzPL2JmtEWmQdS6c6XBQsIDJwKyx9/k52BbHYsDUZYlMdUnGi8992y/5Fa8XhKnkvgCz5AAIbQ/4cZWI3WWbrntTkZsy/bNFtKCQIDIPDNoltYTENdpfTXFbrbCl0LnkMq50opsUcCMIS+uw1mr5lUr6KMy2HN0km16mf17bUeMoUGgQEQ+D09liYhtLK3/iaWa3sVQ5JjBe7vwy1K+mieT2DskYDn4mX5IRa/e0qO1CZ3OaGTdRRPvyqDwAAI/Dgr8JjP+x9vA90lk6/Hof6SbaJ1MoFf8RECnomF589OkiGFvzT2+mur5aBxqjQIDIDAD9FR1lj2VFXZZ3EYg4MpzA2bbXqWzldigcDAU7HqGrgZIUvnK/QUpXCBmXsgF+CsyhKJ94RPJvAFnyEABL5z+nVXhXY73zbMXbNsyz5HttUGgYETYdktkhT1cluTQ98sJpKSNqaQPUlmWMU5MFqqOSnk6kwmMBbBAAj80UG0bGxHWNKNqJoUSnFZWfFtEBg4EdZfA482wVz4Ks3r4U9pCckSnWzoxyIYAIHvjLI0CiO1WynVO4LdoTeVZuaW1JQF1iAwcCKsWW75A0lZ0jzLXirtFNBaSS4gMAACH25i4E3rrUaNJFINW3uC11yd/Ssi+9x8OyEWwcAz8fPCp14dbYbDSsgdb0shlnsTMAmXjW6zc6FBYAAEfm8OrTzQd2Qxh4RinTLsJGs47JRai2AraDpmE/iCTxHwNPy6LGu3RESNhVPV8JfsvQzN4qgE67iKLDWsAwQGQOBV1JbcZMzWuB0NviTm+sYu42ACgYET4WXJ0+8tIUfjUtKinSSbxDGYiVmn0mwCQ8kBgMD9OFm1ZXHyGyXvQjeD1vgjkjvozV0Avo+jNQinQWDgPNAfoln2XiSur6UmZAm3pkIOsyyhRgMym8BYBAPPw8rj59QcU75qsBdVaoy5ImqSsiReJNrKog+43AwEBkDg7phbU630piRabxXr3uHANWyWiUBg4DRYcQ3Mowhoyk3xZr6g+kKHpgeq/yRIzqedX4Ff8TkCQOBxOaa+3CqNGO5jcxJ9NQygi68h/iAIDJwGy66BlXoLg/ihtMRRdZJWattf6zaMy1IFgQEQ+FGj5/o3e3ZqTb6ixp6UBJWa2nEqCmoN359O4As+R8CT8PvCIqv0N2+3OuZ60BWbuNGZ+ymrMiOnQWDgNFjazm+3vzHbKs23NJ50qRFfxerLhfexrbbjrnDFynQCQ8kBgMAua2NroyWbJXAvwuKbIVraXFW4/QMCA2fBmt0ztVyUgT6aLacl/xy7rVP8c6/VEsfRBwS7g8AACGxLqwySrqzSyuR0hDOt9IfivbmWFORufYb7d2R6BYaSA3gSvq5t5L9hShKTqCMmq+OWh8lF6hzQQoPAwJOwto6DTYbO0Clo6mtaHGt+3C+WotMh3awEAgMg8GM8wWTy6ah2wkSGveHesz0zh3KgTr1J1PTcKb+SaftzOoFf8UkCnoKFdRziemgx+17qniM2j+lmCndRUep+t/dBU2gQGACBR2V4cPjNvFZzjbe0LbZWsVYs1WzUl4IKDIDAB1Zee6tCP5OyWitOHCX3Lg3sh1KGWXpAC33BJwl4Cl7WPPp2Iua7TbaOTEzFxaRZvaUpeRYEBkDgw7ZHOiApNQsh7lksMQlL0zRayly6Lo0p9eQCAgNngS4+vbLVmW0StBSvML/viShEpjDUmk9gSLGA5+BHGEHX+TOXQZS7siFfwsBWn+XPyWTLOAgMgMAPOA2LmT3lTjm9IWZ2ReXAa7QdnKqucKy7+4u3SGUGgYGTYFUlpQYHgom2u+sZHriIU2FmX4qT1xAEBk6Cn5erup6ZsvmkHCntsqbptFK5o0GidVBqkBaZibbWidh8AkNLCYDA/+KgTO8V6P1ONC16y72xvv71HQQGzoHFdBxMN/a+tJmwWaVR2Y6JHSUSy6+epPTV+5sgMAACH+8JtqIqanroZlYtZRidWEq81UuCbf7dPhj7Mp/Ar/gsASDw0CeoVNSTahIqbfq7WstDcQuPojxCMQaBgZPgZcnqW/Ml202wbLaw7iROqmkRa0GqQTr5HdWSFC0gMAACP2QczTRwM/Tfk0ZHzXWJHBpnqjHv4ccOIPAFnyXgkxOYOu8Rj+JxzB2jGlVWvDnjr7RKLrMc1lC+QWDgJNAF2+ds3tWhXsMNpwrhtXs0SyolVuO4Ukr/A4GBk2D1OKzs6Zds2ddcXrX4Dc3qSNMb+QWZ21hqfRYQGACBjxk+8x1G653G20XvpBKcQ7DSHliykpoOIDC0lMAT8HXVyis+P0fsm1T3SYWt5I7LLB3Bww3C8Qysf4PAwDmwrpKS2rMxe2OvfVcrsY3PMH/FW3MbOIHAAAh8HHWpqiM9Xcn8pzWjsroMt+zZL8ajsBY2dgjaX1gCfwOBgR8Xvy1Wc9W0yuU/4wakOnROuTlvtcXWSE+7C2Zbp98y4Y+owBBDA0/AskrKut4djarcvIp9U02b9T2Ec28x/Ic5mPIRFRgEBj49gdkeXUfROmQ6afWqDrEvyG+Oipdwf+76c/8BgQEQ+KDCyz1zmWlzMqt6s5khsd6o1uxUmfuDfx1B4Fd8moCH42VbHMaUxK2UsrP97iMrzVE6urfOzCmYJxZgpdBvg8AACHxoIy1dKWVjSXJWfY0q6DKSlk5SzbuOK++R9kkYCAyAwIflYZVNkTS+BCKyTiTdzE3g3A6xRsVc03QaBAZOAl2v+HbuBRnuitNCKdRWbm9u4LRhCjeZsT8Iq7uccB6BL/g0AQ/HSofd5guVymVpFkW+S5Z6XBZu+C85DEuu3E3WBgGBARD4gAl0e/rVZoXEJlNHC7llULXjxSslkcepQ8SmyoLAAAh8RCFuS6x2Gmjq5R1sGCubua9BbQQPCAycBGt6GdiKq9pazJ1CupiGQ6OtZN38cTrNacGUvIoMAgMg8GGRHOxHym6XxDZftjLS2o/UVW3e2D0gO8O/m/8LZvEXbgYABN68KKPldrIwtJ3zrtewiyPyLTVnExJlWn8BgQEQ+NhcLPM1u7G0PyoTddTNOizZuqNwGm2BwMA58OtaR18jstKeld6pxN34ijqnP9cU+DDj5nQVGggMgMCTvcA8KMNlVaRaSigV3zB7I6GJzuGtXOWQTQxS6vG1Nz+EwLAjAZ+7ApehFQ0aah3semOX7J6uE64UZacxISucniXc0SLOzw8CAyDwIWlYSm0zLUaHxVRND2quK+RWCE0mUCv9NhAYOAleFuOt2uWROtsvk5FXWVJrbLRFapJ0LMBSz9RaxtD79/8LAgMg8JF+pLsirY88RiYXq5Fh+UCOn0BgAASezmIXE1sLLpvDL/m+uInWqVcLB7sSWZXXX8cQ+BWfJ+CTErisdVV7hWQMosuElGZmVaxI+3zKLpeIrAs4GAklTqhBYOAkWDRFp+uStZVDh/qr5UQsZgucrxINR2hNiQDCZsYFAgMg8EGz5zqpKuFWjtxs3ISRrTo8R7tCnXyHFCLzyJmRQGAABJ6x/M3Rr1srZGZjUTKTKfOcu1+U0hFZG2lX/gdB9CgCX/B5Aj51Cy29cuPGmPqtrcxsyriYMzDFJTFFTkdeiyXwLyAw8MPi64LHX/MFj6TNI8lluqhQ6tDLpGTZWXX8/d9BYOAUWNRNqGwD3uPA6q2+rsl3JirWyytz/51kHLJ/U6Kd8PrlFxAYAIEPmWE1p2C+KeDI+kip8km28qy6l1JnadrLMAgMgMDHjKBLB3zDpRQrsz3q2lJtZ9DC2QbMqapHKrO72mwmgeEnBD5zC62hbgrf43eWObc50OXvEBNdM7NE3L8CYZy1gcDASbCKGUmH8yzxCRxiJ8z7XNnkZZXbQ7uaLZzPypqNTI7A30BgAASe20OT+zpeb7Yfh9Vvhr11WNtbz/I3ws9fyztxLMdOiAUCAyDwvN0R+165OdzS4LQcWEzNkCvWZpFG4LUFS/8GAgMg8LENtVhqS6eOrNoraxgOaklyhZlyyc5m4v0b/xxEYPgJgQfj98U0HJxym6urkLvtkmmbqV88bWUMlq8xZJ8LfW2m/wSBgXPgZbXKe8Osr4MoaOnTsXzCHVlRh4RrCeMvcQT+AwQGQOC5c2h396C6t1UlT7Gke1ps763l3Kzm9+6O4S8gMAACHzPHst7+rlEmO39OGkpuF0dabf3BPxjVk/GG0egVBoEBEHh+CdZe0KzNGLmcjtmlvbPZFacLWUQc5xOTwy98A4GBk0AXqb5SE3LapjpncWRGGsLGdppMCICOrIcbl5T38IzTcfw0k8Cv+EQB/2PvWnIbuXaoOoEnGWTmTbwlZJQl9MT78VI8DIoGX4+ZAPF66C084EV1v+S9t6RGu0qRq84BGnZLpTJk+Ii85OHhTXGXLaTLEi1Ncqum3GU2sjC5aSXNMTsqNXUCgQEQeH0VluZyE5sdKdn0yuw10zqB1ETyqphOp2AJ0i2pCuvOEQsEBkDgdWNuaibpFbll9dkRsfot9fcldvP+czYNAgMg8MbgQY1as7skd1ROVhxzxYpSvzeVs7Q2ozTd+Nn+Bh5AYAAE3pLG0UiyF3JEgx0xbju67BKgseHEnRALBAY+L+5lHDiOBiq7RLk4uav3xGp7Ttxl4xQYS1nBxVmkdT4Mz+fht80I/BV/UsDBCOwFkeR2eUsTS7k6ZqX+rplC4tgjkkxzLStGo7ijtJG8jgMEBkDgtQeCzZ5CdsKrwYhhrE9RE4Uln3qletUGzRbxn+5X8AgCAyDwx4+66jVWft2CsBlP6hzs2Ks+uC9zS1JEa2eoAwIDIPCaSXQTlanVWPaT+933nPNmjeuSiAKDKd3pFQQGdoJf70+FxQutJDFjhVoqXFpy6Lx1IasxWYbNY2Gv4wCBgU+MX+4kAPNINKl5dF+txw5f1IKko7JQGuDn/M1cwzo/Su008KqzDPDUAY5HYD+yUEzoHMGlXVAW3WOT+pKtUMMY8eRylorWPrGCwAAIvKpSo/R2wxYF8kVldwGPq9ZinLLeFyYUtfyMEwgMgMBrZ9FyMS12ZWa3XlSMgU46DM9bvbPjDseNwiw1WrvfwBcQGACB1+n+tvwVP9MgvuWrWduhmb+dQDoPLolRX/q9KiAw8Jnx2z3OA5MZ/KVam84FZ+vSwaPPgKzTaseGdQq+dq8gMLAX3IujDpOvQl2ZOIxM1rh5RaqrByUvu2Jml4WZ75NoOhDri/sNPIDAAAi8ThJd6kzCPFJ6RJmzDcYTe+Ull10NbMXVtTwtbRdpXQLDFAs4ZAR2ooxhAObsejWec+A8tmD8tbILhyTdpUYtNQgMgMAbDu8nvQalIha5NQyShg+b15KJwnOtS7l466Ql4GFgMWTq/jfwCAIDIPAH/XTcIiManH55THbKpebRCZliU1inSucgrgaBARB4PfpKY2HVJMYDyUfeeaQDxrN9DRntliZj92YWCQQGPjP0XgaBXSB2B1wuowlax/btuhWZsuVOWorG9fsy0RTmE2cGiy9CryvEAoGB2+KO2r8aaEuGwWSf7LJqLVP7JpKzNe6YDfCI4oP1I+EbCAyAwBuNA3NdUVacOLgGZnIThX2qrDWUk7HySDYB5xu9t10kEBgAgdcIvy2jefKJsFmLpGTMsKhTUtflwsbovewUborQX1Ym8O/4mwIOmUKH0y1flmBpaRRNZIJ0UWKxlU9zFnRw6TrNQ8EEAgMg8E0T7BB1izZLXZSl0e7vMH9UNdHFtXZ+qClCP4DAAAj8wzFXrDV7E3KpH1eSrgecHmZr7KH5UbfqkGIF+wUEBnaDn+8p0NrzsM+lWSbXNaoms75RrOkjgV2jSbOiMlD+GQQGdoOf7oO6M+nEkJRLzGyOwZoaRnpFQ03Z2T3Vojnm1PO/N/8beASBARD4Q1FXapNItfR9xOkmc+uI2rlhsgflyfSSZ/oH3ywtDSqd/3sCgQEQeMNWsHuEs8BDpRx6tbpjiYnQVAeDfU3rvXajqK1hgcAACLzmINJko+q0MOKfC9FSOOuWKWmMt0zOp/KcRp8faGpYa+s4nr7ijwo4WgSWJUZLU40ejAPrZM7LmrLoUtmes3KJowzpgWcQGACB1zfjkKVhfrKXzXpIMYHXxmjmrMTMxhwqdWwp8P/8QFPD+gICAyDwKvmz1FqU861LygxavgsbLUd5IbF5YbHzaHRYIDAAAn9olN+Up7ISo12O1OqkNXjlcAqzrbYj7wrO945C6MhfobaG9QACA58Yv9zNMGElbKSoNpLJaEjXJdlitgeX4UKlIo22yo9ZDvICAgMg8MrMpfETWrYQ5ipVttuQ6hkd9FdSp5ZEzAhhaAOL9cxqa1iPIDAAAn8k6H5PiYuMcw4vNI7nVWauqiVllZLMJJbA+hMIDIDAG/aTaOpm9XXYcZLqyqFNRs2cTABMQzkqQP4AgQEQeD2+UhIryznGEi2GadP05dbKfapjDWJPw6kzJZyL0POPa4/Aq7eBQWDgQBGYRwZY0vlTyjiz1jrwUI2iiwMP1Zx75i8FV7znzQmM3SrAcVNou+c3ElAlR1Pn7azVWzblzRRz6TwNIZJmg8l9ELTv/wsIDIDAH9JgkbPGoUvU1naFqLTnYf+E5GgsIf5KfwQGgQEQeB0t5eRUWNWxne1VmqUbKoM7CFV/jikrLlk0F6mn7gj8AAIDnxm/3Z8hh3Q6Sy6KaC2N3qlO/3Kl7iRZ7kG2LC1pSribZACBgc+N/9zTMGHJgXN4VfsUt4Ydku+QRc9slFk6s11ruUsCqbv3/wgCAyDwh8ir2SHWGuNQF2PLhpRcppZsAW+e8aP9kmw4omRLBkfg9YvQIDBwDALrNGj8StE701TFkH2+zeQDNNscnM3wYf6UCI/JCwgMgMAbRGJZMNYxEqs63Ns8RTbNpqyZPn8SpK3fqXA9f33bvggNAgOHIvDylK+YncGycPWcIYfTbpzk13I1pYp1LF6lS+gEAgMg8A0GGrib85fk2KHWZdKVrtl1hCl+BORhpCDG6jPoBxAYAIFXqGVRHg608db2fUeUV985nutgseRVhZU5mQ4K6udbEBjrCYEjENiO/vliFtXiU91ZqLY6dWa1SHdiTqG2tI7ejR461rz6t/8IAgMg8A+efO14bw7BXFJiNuu+uXHXsQ0nparb4BrTz9znamYXLn8FgQEQeP0jMNl0mpZEWqN+knA57EaDLPF7ViQbzepcxP7Wv/0nEBj41ND7KGHxNZEWTdZMp2knN58Cs3ls3sESuJv4fLpFERoEBo5D4Cuy6CyerHGZTemZW9orVUlW2oRUfQOEX0FgYHe4EzNKw1h2HWAVO3eY+73RVZZ8sVr6yE083yudpfsa9CZFaBAYOASBOUsmNQ8MsfODVnWGHKrTgOvz+iOWYuARFiKFe74n6ieLdxkNMmxTwwKBgQNF4DYSj4VZLJ652h2V1SxbYdNHCkl1KEK/gsAACLzRDLA2vljcPJ6bwjJUb6npPbn2MNWalw4y6E2K0CAwcJgIzKMOsbZPs5vqzz1hdkvPii1PsNGalyXRlDvLMr3zRKcb1bBAYGD3BJYsmKShGFrZSCyr5lm6uEzpVip9pzjVtd5ThH4BgQEQeLNMmmoMDXwruXAzqU92jkGsnmvOsGvHSevBOMoo3043KkKDwMARCExN6yg1fJuDrebAy4tZt3qxh8QGMRuN5nx8/uN0qxoWCAzsnMA87Cddni/MLjn+ZRp2AIs2+XcQUofnwxTiXMN+vh2Bf8dfFXCQKjS3vK1CqxR2qWsyEfcaLLKu7/ZTQOIPERq++ScQGACBf7jta3u2ybe9GFi9p51J6ucZ7GyS1ONy+MLEnA7SFFUdRdE1fTvdrIYFAgPHiMB64VA8jab2JSbEzdXN/yXSllPOrRI+DU4gMLBH/Pwv17B4OIfkm0Uydf0mdiP85Araau6aj80vwzf/AAIDIPAKVGY/V8jdFVWzQezPyly6S2p3kMbKloZnmMYBeKMaFggM7J3AzdyQFlM6ba+T3Fuils/T5JVY4fjLUf8cJx/SIDAvBeCNalggMHA7/PSvhV3qO0ZUHDni2K9Y0w6aXKXZfCtK7v/ZGJrn/pGMvbA2PAKDwMD+CdzTkIfPqPiph7m2HMcMJTnplCZw5v7kre3OMfwFBAZA4G2qzzxKsLllbZJDin2tqX/5YX4KAug4Dqyjpd7b1rBAYOAQEZgs5WTUPeoZ3ptu5FIWpaRcImc58Z2Zxj3g7WpYIDCwcwKL/0bLmL5wbvsmRbNMxjRa++6wuOl+aupa6dGl9/4EAgMg8I+efXWYU9NQDM3JLicfan2vKTrpmNK0Rg+PpLF+Pt32CAwCAwdIodW61+licUu4SaipCeWUqSvp9My5Wxx94OX1dOMjMAgMHKYKfUEn3Ss67NRSYL6483QdYOBQmU4D/ScQGACBN+geSVJdJbmkcFffkiDRmn1hmauTjvXLciOGYZQhl7A1SUC+Lb71RxAYAIF/fJB/WnSWjB0gvlIGS1F2XoCkylx9dOxdX5ff+hMIDIDAK6TLsmBpt6D1oIWhfypdYI3jwXyhAr1hDQsEBnZPYLJWsPWLuooWD3gsNfY2S0nZudlFGw55O93+CAwCA/smMLUNJOGuFu1GjZIcmkeG7lTt7WZCixjrjgsH4A2PwCAwsGMCU5FGdiZXztaKxeoqdWos29NZN3q9i3DVhMQto+Hn/HXpnT+BwAAI/OETsPRxWYwDliTVc9VdMttrqc+hKXWL+fXSG9/uCPz0FX9WwF4JrOWLk3DQoIYlUnpGPLnV35pq1Xb6KARdraOEcpm/Gx6BEYGB41ShJ7t20Cwg1Os+s+4KQ+40SHiZvxsegRGBgV0TmHpBtJr9C+oHldpGEdtadd6sEktXwnUG+GL9atsjMAgMHCAC02JjidvAa6yutI75S3KwS/k0MxdFNF/sH219BAaBgZ0TmJtmb5skq9QIW4aMcp7MPa/FDvnPYfi/V9/3AwgMgMCrlaBlxGfNYg0qwwpkXyAp9a5rk9LTb9ff9xMIDOwBv958iIFqG1fsaAI1CTUlinYRmsr2wppSz8pJDYSf6Dvou2kGDQIDO47Ate/759//v47vucbgf2//sHfvSJEkSxiFL3BLQWitNsESkFgCws39sBREjMByWg6J9eQqbjf1LgoGiqrM9PTvCNMvM8bSLI55+B+vr332jMBQgY9PsF4H/uw5gUHgI/ln+M9uCAwCH9UElxF89QWBMQ2u+y6/j2P46jmBoQIfE2C9juKrGwJDBT6Ccfh7QWCowEcwko+eExgqcNT6e+4ZNIExzQr8MJJvnhEYKnDM/LmHGTSBMUWBX8byyWeOsAiMSQo8mk+eERgEjtoAnz3CIjAmKPBoJtDnn0ETGNMTeDxfPCcwCPxNficqwATG1AR+Gs8HzwgMAodNsM4fYREYUxM4VwEmMCYmcK4CTGBMS+BkBZjAmJbAyQowgTEpgbMVYAJjUgL/Hs3HXjQEBoFtwiIwRsL5D/Q/ZivABMaUKnCyBIvAmJTA44mw5gQGgcOuIfU1gSYwJtQDl9F8aUNgqMBhI6yGwFCBw86g5wSGChw2wurTXwJjMhV4JDPoWUNgqMBRH1Pptf4SGJOpwOOYQTcNgUHgoDPoi4bAIHDUDLppCIzpcjntXRxNQ2CowCFn0P9tBoLAmEYF/toMupkaBMY0BB5lxERgEPhEi0hT1JfAmIjA/9oCzxsCA2MV+DVb80tgTEjgktRfAmMSAr8kbH8JjMkI/DupvwTGJAR+Tepvc2dYIb7AJWX/qwJjIgJ/1gLPGxUYGLXAn7TAs4bAwLgFfs3ZABMY0xA4aQNMYExC4KekDTCBMQmBH5M2wATGJAR+yDqBJjCmIHDaCTSBMQGBn5Im0ATGJAR+yVuACYz4Av/OW4AJjP646jfDmhMYCFCBExdgAiN8BX5KXIAJjPACvyQuwARGj/S5D2tOYCCCwA+JCzCBEV7gzAWYwIgu8OHrdBoCAxEEPhhCz7IIbFAhuMCPmQswgRFd4IfEERaBMUmB5wQGYgicegZNYAQX+ClzhEVgTFHgOYGBGAI/Zo6wCIzoAj+knkETGD3S9SPwnMBAEIFzz6AJjB656WUn9IzAQBCBn3LPoAmM2AI/5p5B/8+gwsQEnhEYiCLwQ+4ZNIExNYEbAgNRBM7dAhMYsQUuuVtgAiO2wE+5Z9AERmyBX3LPoAmMPrk9/yrSjMBAGIF/7/8v5gQGzsT1+VeRGgIDYQR+zd0CN/cGFSILnLwFJjBCC1ySt8AERmiBn5K3wARGaIFfkrfABEZogR8JDExH4BmBgbPx69zLwHMCA3EFbggMnI3LMy8Dp2uBmzuDCtMReEZgII7AJXsLTGBEFviJwAYVpiNwQ2AgjsCP2TMsAmNCAs8IDJyRq/Pex0FgIJLAD9kzLG+boVfOK3BDYCCQwOkzLAKDwAQGhhC4pM+wCIzAAj+lz7AIDAITGPga3TlvxEror3vdEVjgx/QZFoHRKzcEJjAIfGgn5YzAQCSBHwhsSGEqAs8JDEQS+DV7CE1gRBb4P+kFvjek0CfX5xP4gsAAgQkM9CLwU/oQmsAgMIGB4QWeExiIJPALge8MKfTJCZ8nLM+POz+6ITBwZi7Pd5aBwEBcgS8IDIQS+IHABMZEBJ4RGCBwLIwo9MrV2QSeExg4O2fbCk1gILDADYGBOAIXAhMYKnBoXMiBuALvvIx0QWDg/JzqZve6dxiJwEAPnPBSrB2BZwQGCExg4PwCdwT+y70BhbAV+HH7584JDJyf21Pp2xKYwOidaxWYwCDwvsA5N2LdGVAgMIGB/gX+vfVjLwgMBBK42z0OTGCgDy5PtZHyuSMwgRFT4HcXciQV2HhCQIHLe4FnBAbiVmACA31wwlvtXglsPKFvTqVv3bmQI+dGLIeREFDg9sCNOgQGIlXgSmACI/AUmsAExgB0J1lH6vYEzplh3RtO6Jubs1RgAgOhBK6FwARG3Ar8RGACI6LA7TuBnWUA+uH6VMtIBCYwAgpcDkyhCQwEqsAdgQmMwFPovaeRnGUA+uFU5wlbAhMY8QSuh5aRCAyEqcALh1/SC2wrNGJOoSuBCYyBOMlZ4FKeH7d+psNIQASBt0owgQmMoAI/E9hWaMQUuCMwgTEcN6cJoQlMYMQTuKx/IfCdwYSAFfi5/ePvbgptKzTQE7c/Mbc7HGIRGOiJE5xmaAlsJyXiCqwCExhRBV6G0C2BjSUMwKUKbCMWEgtc2z9VuCMwgRFO4LI5D7wl8AWBgZ64+ukmjmUjTGBjCUNwmha4Sy/wvaGEYAJ3W0E0gQ0lxK3ABL4zlDAENz9ZAG6fu0pgAiOewFs7Kf8uJBHYUEJIgVVgG7EwHLc/PcawmFATGBiC658uAi9EJjAQR+A3a+tiLWl/GWlmHwfQF79O8roogY0kDMLlTw8T1v17oQkMxBB4M53OLvC9kYRBuDr5MhKBgf74QevbHUyhUwp8ZyAhjsBri7uuvFsHJjDQH90Pn/a2jERgDMjNkdW3rMtwS2D7OBBKYCEWgTEObn+8Dvy8exqJwEB/XKvA9nEgl8B1tYxUD9yJRWCgPy6PXAXuVocJ26IC3xtHCCPwodUkAgOBBC5bLzPsPfCdUeA74whDcZIrOQgMBBO4SKEJjMHpflqAi73QRhEG4+Y4dVc3Qi8KMYGBOAJvZtGtKbRlYAzJd3dyLBaAu9Ucun37A4GBGAKvm98qxLIMjIgCv3+mkMDAMJziWrvkKfSdUYQgApftINq90ATG0FwduQe6vElcF3lWboENIgzIcV3vdkmuBAbCCFzePW9GYGAobo47QbjzN6kFtgyMQALvXk1ZVGACY1Cuj/a3Xb/RkFrge2MIkQT+G2F1ZbUhq0t/LzSBMSS/vr0O3D53bqW0DIxxcHnc+hGBCYxoAh/OpZO/D2wIYVCO38Wx/jOBgRgCd+vbKJ+LA/1WkTA4N98+DlzWN7ovF5IyCyyERhCB67v7KIvjhATGwBy3k6Pd/l1mgYXQiCNwtYxEYIyLyx/V3z9O19QCG0CIInBZ7cKqi8P8dVWSCQwMxbfv5Kjbv9bkAltFwtAct5OjblSuBAYG4+bYEvxsI0dzb/wghMD1o6MMue+FFkJjaK6PSJ+rZSQCI5zAy71Xbxl0WdXfLrPAhg+G5vJbzW/b7sZZNXcFNnwQR+D1PLpd1OKuzX4nlhAaw/ODfVjZe2AhNEIIXD51mcDAcNx8sezWzU2yWzdzpL7YXQiNIALvFuF2ZyKdV2CDB8Nz/d1lpMUycPsWYtXUIZbBg1ACL5aRur3FpbQCC6ExAi6/Fz+37/ZFExgYjqMe+e4sIwmhMQ6+Xn+7jb91U4vTCiyERowYumu3Cm9btjKt2hIYGLnAm+a3bibQbfoptKGDKDF0Wdff7fyqpN4LLcNCGIE/21aZVWAZFkbBETfLtttzaAIDA3L1hXPAyxeRFn1w3V4N7tIKLMPCODj6ge/6ZnRWgQ0cRImh2+f9EKss1oITT6FlWAgj8N6dst1OqEVgYNQxdF1Yu3gTuKwM7nKHWDIsxImh24/a4LwCy7AQQ+Dy8d91id8HNm4QIobuVr+s5s1ltxi3BAaipFjbBbhbTK1zCizDQhyBu81/u72/bpMKLMNChBi6bEfR7VsevVwA7nKn0DIsBEqxyifrSzkFNmoQReDd0Krbj6YJDIw4ht5fDi7b/mZ9H1iGhSgpVru9clS26m9J/LiZDAsj4vYLc+e6/m3ZnUSnFFiGhRgx9EbjVQHu1gaX51qSCmzMIEKK1X64BbqmDrG0wAiZYh2yOaPAWmBEEnj1IlJdrwnX3OeBtcCIEEPXPVe3/6Gu/kxgYLQp1mYDR33fAHdZBTZiECPFWtxdt/tCUtmt0QkFlmFhXFz9y0n++v5p0eXBhpQCy7AQJsVa3mO3Xgju9vOthAJrgREjxdq9Emv/eFKXNcQyXhAjxWo/kLimfp1QC4xQKdbeE6N150KOmk9gLTBCpFjLIwylrP9QD2yyzCewFhijo/sghq6HXvje2aCVT2CjBcFSrOeu3W2Fa+K90FpghEixysHjC+1S37whlhk0oqVY3d62jroWO+E6sMGCEfLZElL30RsrbcID/WbQCNME19X9z+XQ8aTFJulsAt8bK4jRBO9v3ygHf5tNYC0wIjTBdW8GXcv2I2cbtWs2gQ0VxGiCD6dZf580a/9eaNfmrMBaYIRpgvcv42jfLTTlOw9sBo1xcvvpxe71fV+83GKZTGADBePk1+EbseomsaoHM65cAptBI0wTXBfFtl262h26LyvbRo574wRxmuBDE+qynFKXlKeRDBOEaIJrOXA55bLrrZtl4DaZwGbQGC2Xn10s2+1v4cj5uJkZNEI1wXX7Bsru4JQ6lcAGCUI0wd27xxm653XXu1I3315oM2iMmOuD+zjKqgx37//tj8FtJoHNoBGnCa4Hd18tjK45n1YxRhCsCd53d/dm95JLYDNojJrbj7ZcLafR20tLbdumS6HvDBGMmV//Z+/ukVtFogCMPsZFMsFkbOItYSKSyQmkTZoqFsCSWMJEU7b1AxLyCMk2felzslcvoSR/dbtbAl39pFk//7nS+EOljAL2F0KoNXQ//g5l387/Alo+ATvCInG/53fB3eljpONYft8Kf/xGQz4B+/sgcX9Ouh3mHqFz9ZCdbAJ2hEXqXq4fDd1P/92dVtNtbt/EcoRFnDV0O3127CdPu8slYAOYGGvo89g9bYDbmW90HL/NkUvABjCh1tDDcPHhUXe4hb97r7nL7WMkfxxEWkOf72G4Xja343seMgm48bdBiDV0/3p132A7vU2pHX89q88kYH8ahDC5n/B8z8LQnhfSU3kEbAATbw09eXrO5Ay6O/xicPs65BGwPwxi+GP0wMnRp73zv0/Y5zKBDWCiraG7y3sKD8fP54d0dNksoX0GTKBjrNdxsbOfAJ8GdCY/rVL7syCKl7ldb9u2t+7zzyBgA5hQx1jdJ0/lOG6K+48vc2TxXWh/E4Q7xmpH+X6M3+F4l/8o7SGHCewEi1CGw3c0hovp206OorvDx8KbD9gCmqjHWOdHu4+/itVNvqu1+YD9QRDMxRee++tHU44+Et56wLW/B+KO4IsN7/VPN2w9YBtgQo7g0Q97v50598ez5/EPnr19IDxsO2AbYDYygj+q7U73Ih3vbth0wPol7i54eH+k7DBdNHeT24E3/vvA+iWmv7rJjfz95Zc6zv+95SW0/S9R/X57pE53/auEx3+/H0Vv/G6k2p8BUb3MfZNyOD+MY/ufA1s+s51zrG5c7fE5s8OGA5YvwQ2TR1N2p3v6R7+R1H57wFax8OQi+uIWhuNPNBxvcBAwpOiv848Cn1bQh4OtYfQFLQFDkv5+vfVg6MNXK/tvfyKHgOG5gmdu7R9+7IkcAobnCh5mfzL4NI4HAUO6++DTEygP39/4eFrl+xHWYAJD2l5ez/WeF9HDeRj3AoaUE/73dIQ1yXg43JokYNgGAYOABQwCBgQMAhYwCBgQMCBgELCAQcCAgEHAAgYBCxgEDAgYBCxgEDAgYEDAIGABg4ABAYOABQwCBgQMCBgELGAQMCBgQMAgYAGDgAEBg4AFDAIGBAwIGAS8isbbBAIGAQsYBCxgEDAIWMAgYAGDgAUMAgYBCxgELGAQMCBgELCAQcACBgGDgAUMAhYwCFjAIGAQsIBBwAIGAQMCBgELGAQsYBAwCFjAIGABg4AFDAIGAQsYBCxgEDAgYBCwgEHAAgYBg4AFDAIWMAgYEDAIWMAgYAGDgEHAAgYBCxgELGAQMAhYwCBgAUOuAe+8TWACg4AFDAIWMNgDg4BNYBCwgEHAAgZ7YBCwCQwCFjAIGLAHBgGbwCBgAYOAQcD2wCBgExgELGAQMAjYHhgEbAKDgAEBg4DtgUHAJjCYwCBgExgEbAKDgE1gMIFBwN8S5z8mMAQN+D3NwgSGiAHXh4swgSFewKcwCxMYogW8u/cqTGBIL+B6dBkmMMQKeJJlYQJDqICn12ECQ6SAd/dfhwkMqQVc/7p7BJvAkFrAlxdSmcAQJuCrKAsTGMIEXF9diQkMUQLeLbkSExjSCnhmqBYmMAQJuJ65FBMYggQ8dymVCQwhAt4tuhQTGJIKeHamFiYwhAi4nr0WExhCBDx/LZWAIUDAu2XXImBIKeAbm9pCwCBgEPDPn2HdPMUSMKQU8K2LqQQMcQMuBQzJB7wTMMQNuLl1MYWAQcAg4J8/hL51DC1gSCjg21dTCRgEDAL+8UPoW1cjYBAwCPh7Ay4EDIkH3AgYBAysEHD9yeUIGAQMAhYwCHjB9zhufJNDwCBgELCAIeuAd4svR8AgYNieSsAgYAFDFgE3n11OIWAQMAhYwCBgAYOAAQGDgAUMSSgFDCbw19wOPH9DsIAhxgQWMKQdsAkMJjBgAoOAnUKDCWwCgwkMAhYwCFjAIGDg/mIEDAIWMAhYwCBgELDnQoOABQxfQ8AgYAFDFgH7fWAQMPBrjafaCRgCB1wvXQ8IGAQMAhYwpCSp+wkLAYOAQcACBgEv6bEUMCxSCBgE/CXf5Kge+DEWELCAIaafD7heeC0ChoQCbhauBgQMAoYtqtI5hi4FDAIGAa9wDF0tv/sBMlemcwy9FzCkH/CNNXEhYFiqEDAI+PlTrPKBh2hB7vapnGJVAoYIAdeLLsRbBEkF3Cxay3uL4LYqkU1w+chvsYCA09gEVwKG5cpENsF7AUOMgJsFW+DGWwS3rfBB8NxULQUMQQKeWUPvBQyP2Kewhi4e+ikWYJ/CGroUMDykSmENvRcwxAl4d/dG3BsEn1njc6TLLisBw2NWOYaeHmMVD/0SC7BWwPs7B7CA4XPrBLy7bxHfeH8gwYBHx8t7AcPDqpUL3gsYHlfuVy340Z9CA1YN+C3Pai9geEaxT5i3B9I8xXrqh5QAAUN8VboBN94dSPcUS8Cw4YBr7w78j0LA4BTLp0jgFMshNAgYnGI5hAanWM6wIMNTLAFD4E2wdwbiboKdYUHggJ1hQeBTLAFD4FMsZ1gQ+BTL+wJxN8HOsCDwJtgWGAJvggUMgTfBzrAg8CbYuwJxN8HOsCDwJtgWGAJvgm2BIfAm2HsCcTfBtsAQeBNsCwyBN8G2wBB4E+wdgbhraFtgCLyGtgWGwGtoW2BYpLAFBptgK2jIfQ1tBQ2B19DeDYi7hvYhEgReQ9sCQ+A1tPcC4q6hraAh8BraChoCr6G9E/CIygoarKGtoGENVtBgDW0FDWtI4Rir9jZA3DW0NwEeVTrCAmtoAxjWUDnCAiPYERbkN4INYAg8ghtvADzFERYEVhrAYAQbwJDXCDaAIfAI9tJD3BFsAEPgEeyFh7gj2ACGr1EZwBBXYQCDEWwAQx4juPaiQ9gR7DYk+EoGMARWOsECi2gnWLD1RbQFNMRdRFtAQ+BFtJca4i6iLaDhOxQW0GAb7CscsNVtsBcZ4m6DvcQQdxtce4khbMGNFxi+ValfULB+YVMF6xfiFqxfiFuwfiFuwfqFn1P4/BcUrF9Yh+9PQmSV7S9kv4y2fIawy2i3/0LcIWz8QtidsN0vhF1HWz1D2IRNXwi7kJYvJKW0doYMGvY6QdDtsNcHklfM7Ih3tdcFAAAAAAAAAAAAAAAAAAAAAAAAAAAAAAAAAAAAAAAAAAAAAAAAAAAAAAAAAOA/9u4wx20bDcCwAf1dgFfpAQrw6rpBriIgfwVwO003mzQZiZ9I26T9PGiBYtedyQh89VG00wAAAAAAAAAAAAAAAAAAAAAAAAAA721xCWBexSWAaWUBw7RSETBM+wBcBAzzPgALGKbuV8AwpyxgmFYqAoZZLUXAMPcDsIBh4gdgAcPU/QoYppOKgGFWSxEwTKsIGF7gAVjAMPMGWsAgYEDAgIBBwICAAQEDAgYBAwIGBAwCBgQMCBgQMAgYEDAgYEDAIGBAwICAQcCAgAEBAwIGAQMCBgQMAhYwCBgQMCBgEDAgYEDAgIBBwICAAQGDgF0PEDAgYEDAIGBAwICAAQGDgAEBAwIGAQMCBgQMCBgEDAgYEDAIWMAg4Nl8+fPr//9ab8uXP7fv/9/XL39YGQh4ZD/93NstlbL/cE12KwMBTxPwKmAEPPkELgJGwPNO4O8/fRIwAp53AguYcWQB107gVcCMJhUBH9zdvv/IPwacBcw4g0bAR7e3XcBMMWIEXB1wETCjLFAB1we8CZihLEXAAmbiB+DTpSjgXwJeBMwwG2gTuD7gXcCMtoEWcG3AXwXMcBtoAccDTuWLgHm6LOBgwEXADPYALODqgDcBM9wDsFPoeMC5JAEzyAbaBBYwE2+gBVwdcP7ns5QCZpgNtIDjAZddwDxXEbCAeYUNtICrA/7rLwEz2AbaKXQ04OXjnwTMIAPYBBYwAn6LgPef/wkEPE/Ay/8CXgWMgAUMAn54wFnADBSwU+jagP/5L3jmchMwJrCAQcAPD7gIGAHPGPC3z1L+9T8JGAELGAT86IAXATNSwE6hqwP++Pvjk5QCxgQWMAj44QEnASPgKQNevgW8ChgBTxnwLmAEPHXAWcCMFLBT6OqAb98CvgkYE3jKgMu3vwWMgAUMAn5kwB/b528HWQJGwBMGvC4CRsAChj4BO4WuDzh9BLwJGBN41oCTgBHwtAFvAkbAswb89x/KsAoYAc8acBYwAp424F3AjBWwU+j6gG8fAd8EjAk8a8BFwAh42oCLgBHwzAHvAkbAkwacBYyABQy9AnYKHQj4ryu3CRgTWMAgYAEjYAFHAl4FjIAnDXgRMAKeOuCbgBkpYKfQYAIDAgYEDAIWMAgYuF/ATqHBBAYEDAgYBCxgEDBwv4CdQoMJDAgYEDAIWMAgYOB+ATuFBhMYEDAgYBCwgEHAwP0CdgoNJjAgYEDAIGABg4CB+wXsFBpMYEDAgIBBwAIGAQP3C9gpNJjAgIABAUP3ZvaGf/0/7xLwUvNcHpf//rJ/WIdcXz4NK3PZ3yPgH35h612+6m4xEvVTAWW79CXuGPBAp9DlHt/r5x+g542B98v32sLM5R0mcPr3hVrvcv0NYS7f/q9VsJR3CDj9eqHWu1x/BdOwKC9kUN4h4N9eqvUu11/B1G59S4cVlO8bcJdn4NTa99LlVld5/TdLk0uPv1dWUCrDT+DcPtw+u1L36NdJFm3rJ7Iug2+M5oPhmkqNcMCpQ3G59B+Wfa4/+m3aRJd+Aee7BNyjjYNby/rk649+W9ZlLmNP4KXLdCv9h2Wn68+bSsFOTr7MqBN46bLrPfyFbXe5/kYw9Uc/l0fAUsrQE3jpMt2WHre66I+6WaRc2xMGkixl7AncJ7ncP7X4zwmxVNbIlxlzAvd5n3Xpn1qn648NdMsIvvK7aB45gXOf5HL33W7qc/2xgW4ZAUspQ0/gpU9yS//dbp/rz7uqC+V0lecy9gTulFwuvQ+c6n5OI5iGDfT5Kk9l7Anc672f0vvAqdP1xwlW0x6uf8BdJ/DSabql7rvd2ssff7bGAK5f5YNP4F7Jdd/tpk7XHwO4aQ839gROnabb0v3Aqf7yO8aiZQCfLKCxJ3CvB8zce7ebAtffHpqWAXyc5dATOPWabt0PnEqv648B3LQsh57AvaZb6r3bTaHrbw9NwwA+XkAjT+DUa2bm3sMydPntoWkawIcLaOQJ3G26dTrwuziA7aFpGsCHC2jgCZx6TbfUe7dbgqxYGgbw4QIaeAJ3m26587BM0evvIZh7LaBxJ3DqNt16D8vo5fcQTNsC2mecwN2m29J5WC49rz8G8GABd5rAS7fpljsPyxy+/h6CaVtA63wTOHebbp2HZXwAewjmbgto1Am8dJtuS+fWLtw/PQTTsoM+WkCjTuDcrbjUubULl99DMPdaQKNO4H7F5b6tpYMfyEMw13fQ29ECm20Cp37FdT5wOr6JeAjm2kDZjwtfJ5vAuVtxy+eX60prZ3+WevYQzIWBsp6ssW2uCdzxrdt08N1TvLV8tgXIAiY8UE5fs881gUMHTw3FLeEt+fnrs1MsggNlPV9Dc03gjufGx987tfz26U9e7hSL2A56rXjVVAHH3rrdgzuWs3vdGprn67V7LHbQB2sjVS+g/gF/8ouI/Fy/vwfsV06xTq9EaKIvVS/OAqZ+C7dXDeptpoA/HWHxP2g0n12uJTLRc9Vrk1Ms6o9k6kLf5w54jz1CHNzJKi5p4Kuttc85TrH4/dJY6144d8DH58aRPe9W8a3Xhq8W2ifhEXirHdVPDnhvCXi/HEequAy5+oZQe1FvjqGpvLVXF7FOPIFP4gg8tG4133uv7bK+dAHz24Wx3hoX2wwBr2f70/pHjrXb48bh910cQ9Oy1CpnzxwBb1fPAX597d4UZq5/9nYMTcO++Hercp824PPniOpTp63lsi6BXXESMOfLYotM61kDXq+f5P1ywZpGa+Tqh95d5l0fgTu8ePhT6K3iJKD2MKn24XavuqBr5PYpYH5ZFVtoXK9zTuCa/WntsfHasltZQkVmAXO2hNbQq7cpA96qXlwZZtNuJXb169/w410fgYP/LZk5A64bb3Vfda/ObW35Yp/soa1fj8CxdxarHgAHD7juOKnqUypHjxxLfO5v0YBXC1jAoVt6eoGAK1+9tt7xKh5Yl9jVzwLmcE1swYDLUwO+dgq9VY63reaC7W27lSV2JpW8EczhKju9o1eduow9gWvH21bT+dZ2s1tiOS4C5nDZnr9++oC32t72mi+6tt3sluCGWMBcyebzObVNF/CtLeAUeGqNBhy++gImGnCaPOCt+uXtAZ/f7KIBV34YHQFXLqF9toAD+9PGM6yaayVgHhzwMlDAF06hA6fGpfEMq+ZaRQNeBExbwDWfJBx4Aq+B8bae//hr47WKBnwLbCgQ8MsFvN8aA4598uL0Qx/hgLOAaQu44pNI4wa8RV5/HnDwz/0VMM8PuOIYetyAQ5uL0x8tGvDWHnASMO8b8NYccOyTp6enWALm0QFXHEMPewq9hvan++lL1tiBQYeAY7+BGAGPHHB0Agd3vPtpkc0nfuGAbwKmLeDbvAFvDw84C5ixAy4TBdy+uQj+9r/TY+h4wFnAtAWcZw14DwZczr79JmDmC/j0zc1RAz5f7N0DPvtP5giYNw44eArd4ekgR+s52QPEA04CpmvA2ywTeAv+EgTMSwa8TBrwGg54Pemx/cAgHnD8roSAj5bQPknAFz5lJmBeMODbnAFvHQLufksQMAKuW+trvI61/Zaw9A74JmAaA86hN1tGOYXuMd5Sa8CbgBHwpQncP+C1vTcB8/SA19cJ+KyO3Brw3v5LzAKmLeAk4PqAs4AR8KMCPqmjtH7FImCeHvDpOxkC/vRu1/5LTALmRQLe7xzw8YZ3FzACHnkC9wj4+I1gAfP4gE8/yTFvwCkQ8CZgBDxTwKk94E3ADBZwEXD9xWoPeBEwjQHnlw34+Cn3wtvAAkbAF7/0GAEfnosJGBP4SQHfBMxLBLy+S8ClPeAiYJ4ecHrZgG/9A04CRsBPCbhExvOjAr4JmL4BbwKu/lX8624nYJ4Q8DJIwLuABSzgeQN+8AROAuYVA95fKOBcHXB1Okd3OwEjYAEj4FBsAhYwAp4s4EufpDz+KJaAeX7A5VkB7wIWsIDnDdgEFrCABVz79UuPgIuAeXrA/2XvjnIkxbEAiiKxAG9ldsDWWRLS/FpiRmqp1dVVCc9gsIFzfyuLiIzghI0hyAngNfwKJ4DVN+AZYIAFcN+AR4AFcE3A+RGAt66lBFgtACcjMMB6DeDlg4AzwAL4SYATwAL4e4C3LoYGWAADLICfCDg3BLwArMcC3vlC8BdGYIAF8KMAT3UAZ4AF8JMATwALYIABFsAAC+BOAN+7Cn3w68AAq3fA6ydG4EqAV4DVGvAAcAHgBLAABhhgAQywAAYYYL0I8NwG8K2r0CPAAvi5I3A1wDPAArg14AFgAfwJwCPA6gzwBDDAAhhggPVZwBlggAE2Aoe2nwDWWwEvAMcBLwALYIABFsAAC2CAARbAfa9CAyyAXzMC55LXGGABDDDAAhhgAQwwwHoy4AQwwHoN4NwG8K2r0BPAAvi5IzDAAhjgX/8rwAIYYAEMMMACGGCABfCbV6EBFsBGYIAFMMACGGCABTDAAAtggAXwMwBbhQYYYCMwwAIYYIAFMMAAC2CABXAc8AowwDICW4UGWEZggAUwwAALYIABFsAAAyyAARbA3QC2Cg0wwEZggAUwwAALYIABFsA9A14AFsAAA6zBKjTAAvgLI3ACWG8FnAEGWEZggAGWERhgAQzwFuAVYAF8EnAGGGCAjcAAC2CAARbAAAMsgHsCPAIsgAEGWO8CnB8JeAZYAN8+Ao8A6zWAJ4ABFsAAAyyAGwCeARbAAAOszwLOAAMMsBH4XsADwOoM8AIwwAK4Z8DDYcAJYAEMMMACGGAB3Ang3BDwArAAfu4IDLAeDHgF+CjgDLAAbgB4AlgAAwywegM8AwywAO56Ffow4AlgAdzZCJwBFsAfBLwALIAbAE4A6yWAR4ABFsAAA6wOAA9tAOeGgAvuarfxYQewPgz43hF4BFgAAwywAAYYYB0GnAA+DHgAWAC3BzwDrJcAzo0A37sKffSeOiPAArj9CAywAP484AywAO4A8AKwngp4+iTgCWC9EvACcHiTAAvgNqvQVQAvAAvgJiPwwa8jAazeAK8AA6zXAJ4BDk9XZoAFcBPAI8AC+C2AV4D1UMBjCeD1OsAZYIABPg94aAT45hF4OAZ4DX8mACyAbwM8AyyAPwY4A6zmgNNHAU8A64WA8zcBB+2MAAvgP246Pw/wArCaA54+OgIngPVCwMu2gvmlgA9NVwAWwA8GPAOs5oDXjwI+dCkWwOoc8AxweLoyACyAG61CDwDrBYDHr47Ahy7FAlidA95RsHwb8ObCF8AC+D7AR67kAFidAU4Ax3+xzes4AFZ7wHnnB/J7ACeA9XzAUy+Ac1vAuRzwDLB6A7x8ZwQ+cFu7BLCeDXh9K+C19gYB1h2A966kPHj3t3cCngBW34Dn7wA+cCIYYHUGeCwFPH8Z8PZRM8BqDnj4EODyE8Hb/wFg3Q44lQJeAAZYAHcAuPgE2fZpYIB1P+Dd6zgABlhPBjysa/na9iMAF6+vF20PYN0AeN0fX68DPLYFXPyV/glgPR3w+lrA89lfCmDdDXj/NHDgUo/HAi5dhl4BVl+AU0DnBHBMG8BqDTiwzrVcBXi+HXDhMvQIsDoDPAF8FPAMsJoDXgNLzOnIMvQjABeeRyrbHMDqEvD6HsCFy9ATwOoL8Bg4ixRa6Dr4TB4MOAOs5oBTT4CX+wGXLUOvAOtGwMWXFv1gMzRMb/6fhwAuuq3eArAuBrwUAw7Ns8tXt7sFXHS/r92/MQOwqgLOZbvPjzvdWr6KtT4D8Aiw+gW8e7QaHFvX4oPg6JmngmP2OwDP545PAFZdwLnMWRTwUu15tAY8lPxiu78SwKoLeC388SX2Y4WXLPUMuOCYYwRYdwNeyg6B59hW19KnEQO8Nge8xje2AKzrAZeY+BlwKj0IXh8DuGAZetp9CQBWbcBLySHwGv25pezQ+mfAKf65cA3gglWsqXBjAOs84FxjvB7XsoPg9bGAl/BvBbDuALyJIursN8Br2QDcMeD4Db8C15YBrOqAw7vk1v6zFs2h1/iTGONbvQhweBVrfw0LYNUHvDGspeOAc9EAHAWcGwBO0Ver+KJxgFUDcI6PlHN8s0UD8IMAL8HpCsC6CfCPe0XBke1UMIdO6/EPkQaAx+BrEDnfBLAuABw+OZRLUJYMwD0Djt40N3LJFsC6AvBy+sB2jB9apzLAU3gZ+irAwVv2RX4KYF0BeA1KW0oA5/BPFgBeGgCOfXEqtNYFsC4BnGM/OhctTM1nn8AfYOT2gGPjNMC6EfD+l8/39rjo6nZaTwFeGwAO3TAottQFsK4BvIZ+snC7sU+FsqPr+X7AofuNpAPHDwCrGuB8/Kj255H1xMP/9DyWBoAjN/aLrRYArIsA/7ZrFJwv/nFoXcKPnqNH17kB4MBtSYI31gVYVwH+174xhVelfgb/2/6W1tOA1waAA9+KPvStLYBVEfAvu2VwRry74TnmdwvwFJ0GXAZ4/0tZwVuHAawLAf9j70hrJcD/FLzhtwBwbgB42huCj12cCrCqAv4bR+m52i2eeXOOHdh2ik7krwO8d03pFD3YAFhXAv5rz0zBZa7AKtbfO2pa16OAwzewvA7wuP1apPBcBWBdC3iruWBHK63GXQWuAzwUHhpkgNUf4Ou2vD09jz6RCwFv3QYhFcxVAFYzwKV/xKHaxqP34bsQ8MZXmIvmKgCrGeC9fWe8CnB0inoh4LHSXAVgNQM8F+1plwKud8vHIOCh0i8DsJoBvvLwuuBrgtEvStQFPNWZqwCsVoBzIYaKWw8yuRJwqjNXAVitAO/vOuNVgINfgbwS8FjndwFYrQDPhbtaRcCpPeCS120BWPcAzlPFQ+BTB8EFN3xuAzhV+agDWFUBp4oz6FNz6HxkaL8T8Fjlow5gVQU81JxBn5lD5yND+52AhyofdQCrLuBUcQZdOIeeT3/T6VbAqcZHHcCqC3isMkIeOFD81+ifj8zNbwU81j+aB1hnAUcHzeXAzrY3UBV8QHQAuMorBbAqAx4rzqBL5tDLUAJ46gBwqvBKAazKgGPm8nDEw85+XvAAYweAhwrHGgCrNuDx7MLMoTn0XAZ46AHwdP6VAli1AYf2y2Ob3xmnSnbMqQPA4/ljDYBVHfBYbQlrKDukLhmBxw4ARz6dFoB1M+DAfjnHt19wqrRox5w6AJxOT1UAVn3AY60lrOgy1jKUA04dAB5OT1UAVn3Au0PwXPIA8YXash2zB8Dp7FoBwLoA8FhrCSs2IR8OAU4dAB7OrhUArAsA74wsZTvNGD6gLnyMHgCnk590AOsKwEO9AXh3CJ6Hg4BTB4CHqjctAViVAKdqA/DeELwMRwEPPQAez33SAaxLAG8Mm7n4IaKfBqU7ZuoAcPTPswKsWwEPdZag9+aZy3AC8G94WgAeKt6zZAZYtQCP1QbgjXnmMpwCPPQAeDyzVGAE1kWAg3e9OLWONQ8nAY8Vntvpar5QUi3Af1Y3D/UEbw0twZFl7MFMzRdKqgX4Tzvm4RlbZC5+5IHGHga9iV91CPj3HfPEEVdghnnskaYOZq0Tv+oQ8L93zKXaA+0aX458NrR7FZPjX3UI+Ncd8+ywsredE58V439aj3lWhtUh4H/8e77TwBMR/HU4/l+7lHoC/P8dc7ppt3R+U6oPuMUsFGAJYAlggCWAAZY+A3j2zkgASwADLAEMsASwJIAlgAGWAAZYAlgCGGAJYIAlgCU9A/AIsASwBHBrwN4YCWAJYIAlgAGWAJYEsAQwwBLAAEsASwADLAF8EnD2xkjPApwAlgCWAAZYAhhgCWBJAEsAAywBvA148cZIAEsAN3gmAEsASwADLAEMsASwpO4Bz94YCWAJ4Jvyp5EkgCWAAZYABlj6ImDvi/QswO4qKwEsAQywBDDA0hcBu6OO9DDAboklASwBDLAE8GHAi/dFehZg3+eXAJYABlgCuChfRpIAlgAGWAK4pBFg6SWAvS3SswAngCWAJYAbA3YptPQwwBPAEsASwA1aAZYeC/iXs0iLt0UCWAL4npILsSSAJYBbPw2ApWcBXl2IJT0W8AiwBLAEcIOS6zik5wKeAJaeS2d1HYcEsATw/f26hjV7V6QnAU4AS88FPDmLJD0X8Aqw9FjAvx4CO4skPQpwsggtPRfwCrD0v3bu5jh2EIjC6EIBEBKpT0jKAK+tP2+A4crnhGDVV93Nm3qxAf/eoD1CQ1TARcCQG3D1CA2xAR82aI/QkBRwETDkBlw9QkNswIcN2hsWJAV82KC9YUFSwE3AEBvwcQB7w4KggA9PWG33SSAm4OMTljcsCAq4OoEhNuDTAHYCQ07ApwHsBIaYgE8D2AkMOQGf+nUCQ0zApTmBITXg8wLtBIaYgM/9OoEhJeDanMCQGnC56NcJDBkBX/XrBIaMgLerfp3AEBHw5fx1AkNEwPW6Xxs0BAR8068NGtYPeGt3fA1YPeB6268NGlYPuN2zQcPaAZeHfm3QsHTA21O+NmhYOuD2zAYN6wa8/dGv30FDcMA2aAgO2KeAlW9gAxheG/DHp4DYgD1hQXDABjCsHXA1gOGdARvAkBuwAQyrB1wMYHhjwAYwBAdsAENuwAYwrB/w5lfQ8L6Adx8Buiy23wjYAg2dRvA3Av74BNCnqy/8lzoWaOi1RM8P2AIN3Zbo+QFboKFbWdMDtkBDvzN4bMBVvzAyrckBO4Ch53Y7N2D9QtclemrA+oVeyoSmip9Aw8jxODFg8xd6n8HzAt79waF3XtMC/vh7Q/clemzAm/MXRi7RcwI2fmFIYDMC9neGQUv04Kdh9cJI/m0HAAAAAAAAAAAAAAAAAAAAAAAAAAAAAAAAAAAAAAAAAAAAAAAA/qcftVlBWrSR8JkAAAAASUVORK5CYII=;" vertex="1" parent="1">
          <mxGeometry x="59" y="254" width="168" height="94.5" as="geometry" />
        </mxCell>
        <mxCell id="61uF1YbIP2I4fAmgQpX1-2" value="Script Python" style="text;html=1;align=center;verticalAlign=middle;resizable=0;points=[];autosize=1;strokeColor=none;fillColor=none;" vertex="1" parent="1">
          <mxGeometry x="99" y="359" width="90" height="30" as="geometry" />
        </mxCell>
        <mxCell id="61uF1YbIP2I4fAmgQpX1-3" value="" style="endArrow=classic;html=1;rounded=0;" edge="1" parent="1">
          <mxGeometry width="50" height="50" relative="1" as="geometry">
            <mxPoint x="240" y="190" as="sourcePoint" />
            <mxPoint x="600" y="190" as="targetPoint" />
          </mxGeometry>
        </mxCell>
        <mxCell id="61uF1YbIP2I4fAmgQpX1-4" value="1. Requet HTTP" style="text;html=1;align=center;verticalAlign=middle;resizable=0;points=[];autosize=1;strokeColor=none;fillColor=none;" vertex="1" parent="1">
          <mxGeometry x="271" y="158" width="110" height="30" as="geometry" />
        </mxCell>
        <mxCell id="61uF1YbIP2I4fAmgQpX1-5" value="" style="shape=image;verticalLabelPosition=bottom;labelBackgroundColor=default;verticalAlign=top;aspect=fixed;imageAspect=0;image=data:image/avif,AAAAIGZ0eXBhdmlmAAAAAGF2aWZtaWYxbWlhZk1BMUIAAA1HbWV0YQAAAAAAAAAoaGRscgAAAAAAAAAAcGljdAAAAAAAAAAAAAAAAGxpYmF2aWYAAAAADnBpdG0AAAAAAAEAAAAeaWxvYwAAAABEAAABAAEAAAABAAANbwAACsYAAAAoaWluZgAAAAAAAQAAABppbmZlAgAAAAABAABhdjAxQ29sb3IAAAAMv2lwcnAAAAyfaXBjbwAAABRpc3BlAAAAAAAABkAAAAMgAAAAEHBpeGkAAAAAAwgICAAAAAxhdjFDgQgMAAAADFRjb2xycHJvZgAADEhMaW5vAhAAAG1udHJSR0IgWFlaIAfOAAIACQAGADEAAGFjc3BNU0ZUAAAAAElFQyBzUkdCAAAAAAAAAAAAAAAAAAD21gABAAAAANMtSFAgIAAAAAAAAAAAAAAAAAAAAAAAAAAAAAAAAAAAAAAAAAAAAAAAAAAAAAAAAAAAAAAAEWNwcnQAAAFQAAAAM2Rlc2MAAAGEAAAAbHd0cHQAAAHwAAAAFGJrcHQAAAIEAAAAFHJYWVoAAAIYAAAAFGdYWVoAAAIsAAAAFGJYWVoAAAJAAAAAFGRtbmQAAAJUAAAAcGRtZGQAAALEAAAAiHZ1ZWQAAANMAAAAhnZpZXcAAAPUAAAAJGx1bWkAAAP4AAAAFG1lYXMAAAQMAAAAJHRlY2gAAAQwAAAADHJUUkMAAAQ8AAAIDGdUUkMAAAQ8AAAIDGJUUkMAAAQ8AAAIDHRleHQAAAAAQ29weXJpZ2h0IChjKSAxOTk4IEhld2xldHQtUGFja2FyZCBDb21wYW55AABkZXNjAAAAAAAAABJzUkdCIElFQzYxOTY2LTIuMQAAAAAAAAAAAAAAEnNSR0IgSUVDNjE5NjYtMi4xAAAAAAAAAAAAAAAAAAAAAAAAAAAAAAAAAAAAAAAAAAAAAAAAAAAAAAAAAAAAAAAAAABYWVogAAAAAAAA81EAAQAAAAEWzFhZWiAAAAAAAAAAAAAAAAAAAAAAWFlaIAAAAAAAAG+iAAA49QAAA5BYWVogAAAAAAAAYpkAALeFAAAY2lhZWiAAAAAAAAAkoAAAD4QAALbPZGVzYwAAAAAAAAAWSUVDIGh0dHA6Ly93d3cuaWVjLmNoAAAAAAAAAAAAAAAWSUVDIGh0dHA6Ly93d3cuaWVjLmNoAAAAAAAAAAAAAAAAAAAAAAAAAAAAAAAAAAAAAAAAAAAAAAAAAAAAAAAAAAAAAGRlc2MAAAAAAAAALklFQyA2MTk2Ni0yLjEgRGVmYXVsdCBSR0IgY29sb3VyIHNwYWNlIC0gc1JHQgAAAAAAAAAAAAAALklFQyA2MTk2Ni0yLjEgRGVmYXVsdCBSR0IgY29sb3VyIHNwYWNlIC0gc1JHQgAAAAAAAAAAAAAAAAAAAAAAAAAAAABkZXNjAAAAAAAAACxSZWZlcmVuY2UgVmlld2luZyBDb25kaXRpb24gaW4gSUVDNjE5NjYtMi4xAAAAAAAAAAAAAAAsUmVmZXJlbmNlIFZpZXdpbmcgQ29uZGl0aW9uIGluIElFQzYxOTY2LTIuMQAAAAAAAAAAAAAAAAAAAAAAAAAAAAAAAAAAdmlldwAAAAAAE6T+ABRfLgAQzxQAA+3MAAQTCwADXJ4AAAABWFlaIAAAAAAATAlWAFAAAABXH+dtZWFzAAAAAAAAAAEAAAAAAAAAAAAAAAAAAAAAAAACjwAAAAJzaWcgAAAAAENSVCBjdXJ2AAAAAAAABAAAAAAFAAoADwAUABkAHgAjACgALQAyADcAOwBAAEUASgBPAFQAWQBeAGMAaABtAHIAdwB8AIEAhgCLAJAAlQCaAJ8ApACpAK4AsgC3ALwAwQDGAMsA0ADVANsA4ADlAOsA8AD2APsBAQEHAQ0BEwEZAR8BJQErATIBOAE+AUUBTAFSAVkBYAFnAW4BdQF8AYMBiwGSAZoBoQGpAbEBuQHBAckB0QHZAeEB6QHyAfoCAwIMAhQCHQImAi8COAJBAksCVAJdAmcCcQJ6AoQCjgKYAqICrAK2AsECywLVAuAC6wL1AwADCwMWAyEDLQM4A0MDTwNaA2YDcgN+A4oDlgOiA64DugPHA9MD4APsA/kEBgQTBCAELQQ7BEgEVQRjBHEEfgSMBJoEqAS2BMQE0wThBPAE/gUNBRwFKwU6BUkFWAVnBXcFhgWWBaYFtQXFBdUF5QX2BgYGFgYnBjcGSAZZBmoGewaMBp0GrwbABtEG4wb1BwcHGQcrBz0HTwdhB3QHhgeZB6wHvwfSB+UH+AgLCB8IMghGCFoIbgiCCJYIqgi+CNII5wj7CRAJJQk6CU8JZAl5CY8JpAm6Cc8J5Qn7ChEKJwo9ClQKagqBCpgKrgrFCtwK8wsLCyILOQtRC2kLgAuYC7ALyAvhC/kMEgwqDEMMXAx1DI4MpwzADNkM8w0NDSYNQA1aDXQNjg2pDcMN3g34DhMOLg5JDmQOfw6bDrYO0g7uDwkPJQ9BD14Peg+WD7MPzw/sEAkQJhBDEGEQfhCbELkQ1xD1ERMRMRFPEW0RjBGqEckR6BIHEiYSRRJkEoQSoxLDEuMTAxMjE0MTYxODE6QTxRPlFAYUJxRJFGoUixStFM4U8BUSFTQVVhV4FZsVvRXgFgMWJhZJFmwWjxayFtYW+hcdF0EXZReJF64X0hf3GBsYQBhlGIoYrxjVGPoZIBlFGWsZkRm3Gd0aBBoqGlEadxqeGsUa7BsUGzsbYxuKG7Ib2hwCHCocUhx7HKMczBz1HR4dRx1wHZkdwx3sHhYeQB5qHpQevh7pHxMfPh9pH5Qfvx/qIBUgQSBsIJggxCDwIRwhSCF1IaEhziH7IiciVSKCIq8i3SMKIzgjZiOUI8Ij8CQfJE0kfCSrJNolCSU4JWgllyXHJfcmJyZXJocmtyboJxgnSSd6J6sn3CgNKD8ocSiiKNQpBik4KWspnSnQKgIqNSpoKpsqzysCKzYraSudK9EsBSw5LG4soizXLQwtQS12Last4S4WLkwugi63Lu4vJC9aL5Evxy/+MDUwbDCkMNsxEjFKMYIxujHyMioyYzKbMtQzDTNGM38zuDPxNCs0ZTSeNNg1EzVNNYc1wjX9Njc2cjauNuk3JDdgN5w31zgUOFA4jDjIOQU5Qjl/Obw5+To2OnQ6sjrvOy07azuqO+g8JzxlPKQ84z0iPWE9oT3gPiA+YD6gPuA/IT9hP6I/4kAjQGRApkDnQSlBakGsQe5CMEJyQrVC90M6Q31DwEQDREdEikTORRJFVUWaRd5GIkZnRqtG8Ec1R3tHwEgFSEtIkUjXSR1JY0mpSfBKN0p9SsRLDEtTS5pL4kwqTHJMuk0CTUpNk03cTiVObk63TwBPSU+TT91QJ1BxULtRBlFQUZtR5lIxUnxSx1MTU19TqlP2VEJUj1TbVShVdVXCVg9WXFapVvdXRFeSV+BYL1h9WMtZGllpWbhaB1pWWqZa9VtFW5Vb5Vw1XIZc1l0nXXhdyV4aXmxevV8PX2Ffs2AFYFdgqmD8YU9homH1YklinGLwY0Njl2PrZEBklGTpZT1lkmXnZj1mkmboZz1nk2fpaD9olmjsaUNpmmnxakhqn2r3a09rp2v/bFdsr20IbWBtuW4SbmtuxG8eb3hv0XArcIZw4HE6cZVx8HJLcqZzAXNdc7h0FHRwdMx1KHWFdeF2Pnabdvh3VnezeBF4bnjMeSp5iXnnekZ6pXsEe2N7wnwhfIF84X1BfaF+AX5ifsJ/I3+Ef+WAR4CogQqBa4HNgjCCkoL0g1eDuoQdhICE44VHhauGDoZyhteHO4efiASIaYjOiTOJmYn+imSKyoswi5aL/IxjjMqNMY2Yjf+OZo7OjzaPnpAGkG6Q1pE/kaiSEZJ6kuOTTZO2lCCUipT0lV+VyZY0lp+XCpd1l+CYTJi4mSSZkJn8mmia1ZtCm6+cHJyJnPedZJ3SnkCerp8dn4uf+qBpoNihR6G2oiailqMGo3aj5qRWpMelOKWpphqmi6b9p26n4KhSqMSpN6mpqhyqj6sCq3Wr6axcrNCtRK24ri2uoa8Wr4uwALB1sOqxYLHWskuywrM4s660JbSctRO1irYBtnm28Ldot+C4WbjRuUq5wro7urW7LrunvCG8m70VvY++Cr6Evv+/er/1wHDA7MFnwePCX8Lbw1jD1MRRxM7FS8XIxkbGw8dBx7/IPci8yTrJuco4yrfLNsu2zDXMtc01zbXONs62zzfPuNA50LrRPNG+0j/SwdNE08bUSdTL1U7V0dZV1tjXXNfg2GTY6Nls2fHadtr724DcBdyK3RDdlt4c3qLfKd+v4DbgveFE4cziU+Lb42Pj6+Rz5PzlhOYN5pbnH+ep6DLovOlG6dDqW+rl63Dr++yG7RHtnO4o7rTvQO/M8Fjw5fFy8f/yjPMZ86f0NPTC9VD13vZt9vv3ivgZ+Kj5OPnH+lf65/t3/Af8mP0p/br+S/7c/23//wAAABNjb2xybmNseAABAA0ABoAAAAAYaXBtYQAAAAAAAAABAAEFAQKDBAUAAArObWRhdBIACgoaKnH+P8EBDQaEMrUVESABBBBBQPaGGd/ht72ENDmTuVagEPFpZY9Fy/S0hupf6urer5LWuACe4F7GT5oI+ZjhiuyTnJP8lt50OZ/9ApYlFEmLH3MJirjfrCjGMfDpfh1ZBWr34o9tPGrFlYoTjyabfz0jHuhKuHqaitu/CTap2hniUVnSCT5Ra3V6pbGzm/1gWV5efvPCqhpoKuQrMYDUsRS6a+GfCnY3kjcgJCs7tk1wVG2vvWLrOC8rvFgywcO3JJBtqu7EjTbofH6G2WjYCnAP+aN4q90BVX7rKppf8FVDEMbjt2zPY+D5Dm4X3Ny8y9wahEN+1oGnSNnCxQDRP79RHs/KZhW7KCwL7gStzncnmr0unEyL/QeSJ1TqjvMMP550LGAZBEqBdEb2aODKZD8uCkISOKuTTdl7JPXVnLzrchMno85NWjjfqAp6SJ6P+lxsaPgRMOnpIi6P91SwlNepAjktNX16vabHLtgR7sUqqqvI8H1V7CsAr6iP864M70Kru1HZQtv4QtCQNgHcAJQ+IEehHWDKohHZvux8fK13u0FtUeKySsvxSUCP/gOpugH7MUigs5JOugvZqPB6tNWEA8fOaEU2AkNApwEmoxrABNSIWpGYOQHAPNtRQVZn1ldUTTzKMwsx+I+coKsuvhF0AflHK8zkAiNOmJBHQOVkDwxeoQzMTsTJOGMYxjGlefLXEbeo3PbDGA+GD/wlzHvhjGktkvwW9feTHnWsmYvs3usB1NDPQAS8eW9pX63aZ7DUp3IbInCLhiQC2kTmuA6Z3IS/InoyuNAE9DECqrAMpFf2GGQQHmZWN1Mc3K/aXTUBPAKnwBvFPGUroJcYnNde0ClFizsf0UQ+eZW/4s0nHLxjogGZZcCRRTkAV9r6XsAyw9O/qYdxpe0wbkJ6avujRoqpp+p7SDllTN1oU81TCP98Q0SDg2yPkXBEQaOLtVB0indUTnklPXP/sFEcBpZzSwXTzHl/8nuyQx6AxCoelsp2NqbvJjIkdf4+HBg+55IwAXoqvg9OsBpzpOzJw+ubw4R1b8JM7hiUs3LQNIcSf/7LnfcAXc+JMpgvVDMnkGzU2T4hECSasOs9LbZVZxDaRevzrKCGI9DN/Y3BuD5j4qmNbSB9ieHNneKsjF4m/ldcM9M0kyMOG1bdWYhd2S3aKgwtQmn4fKW0rErelzG1HfAHVUc7zfGyskXNaJK8E1ajjFl+gCYzVfhN3IVxDCU0daS9Jig6Kc+YU08XMcIGOoZ2iR1hrl2XASaKAz34ign/w+BKxH/SH8+AGbfHMbAVhdlRWeS3ZiMy/WeNrd21DGuMXe225mBmPhBUgeBhduSmMsTsXffZGOn7gUh0hVgQZJohA/PMFH5ORDRcgShFlOBMsNxhYXLhqKEhVCzYD6jd5FqS4gnqLDhgwpRD9Hs1WTlCg4AyYp2WJa5xnQHjwv0CVEuAM49oxzkJHNAQLVna639RAyslLu7osymvLo4j2+ppQN+OPrdLPzpHpvo85fxfVA09VVVOAvm32k7rOr9r8GXeuEsZ2gIxvkcy2ZAnc51V39K89/zLvNrFrOkzjoBOxRvqbirua0i0mp2tppqdRs8JsKTS32cCzkrRvPneoJERxxWBHTan/yp/7w1Opx9MhwT5ohq+HVID1UpggNVm4yJ3K3a8jip+cYMncxd+0XIX7a8Ca7iqpkhE0WPJYurZ8A1l52cz3nAKsvewBGLlCKfguSSEkdj2iyI5cmnekFHfo3gO73ibluiXKPctYVnOANFbIsZnQYuATjJSRCwPQUbLn2KzE+KBheXdXQ029qoPY57XZs4sJ+ajAphEwvWCsayNpZ8gSMg5UiKeU+kwKET4Cp1IVggBJfh7WO17cxynyz7587ftvTHu2b6VXJgYzk5o6kx8s0Wt2RKSlGo755QE8wBtvadixV8+tNM7WEE1N33anmMzOqiyWNcvncbKMLSF1R557iqClAtKBVpQyhlDJ3Wq/Bh85cD2MvKiaTPD0M65Q6WyqdiQm71nqdF44WkW88mZYoIvYDu6mOxChuC6py8pa2oUVbPkpurA95LRrQrRFMgtAFcrhixHjMX1q6OOpqPptRf4sFbrA3HfRGYNGDequPcPe4knF9qDaLxwtGZCZsOq+tq62qZojbyq7pxUVPAZy6DOPiaU1qoq6pMfOV54j0mOOrc2T9UCl4qWYPMQAJioxGaDfIJR6GJcrAgXDfixze4HBCAidKO0wpbzlS0MWQUR1NWUjcWlBw0lHO9xy2RLuJbH6dTVAeND0D07LpsepsVg83czObUfLNKzY0iQy34L18HfqaapQ1f7AijtdtLOxshHPpCwgkFGVwhyZhDbzLlWxIf5lqCiqAOqszReaQCaVjMjQJ6OscMnCFpK3I5p82Gb7SnPEQILICMzeYBTF5dzlptklCZleEn1U0qMDw7e+EmOzipohoV+ZC+smZV098DGryfrsxPGkI+CjIFedhThwZlBZDtA81aDVYTygL38X+kkwg99sY5yNRPXUbisMFCr4Iqe5WvbbCQY2G7RuxP8VannTWdPLmPjN3+qpinWqHbT/8hwlrq6wNiHnqeRbEl7DkBt8zvKX+kn/hTVmjnrH+9dxOK4F8seNV8Z7Ixy4HGxP1K2v3s+raCOMoXqp1OjGu7dxqS9T6icOS2mYXKDEyYrbTRhitwINN7Piji7/eFlKFQjdcn4Eyx+kxciOa1LO/cEM+RuSfGQ8aVa2460+oJOudpTC25ZPV/7ydjfP0lFZIPdG5jEHnaGsLg9ZqBnV6OXXADO5pdbeSFuQwgEGUDqs14nP+BQUBCtIhES9pCfwPx8L+CcDwiB0WhdUz5MgtvgrxZSj6Yj3Pvxjjs96IWCMSdrrVK5CSjY+D3T2SXjq7/vAaFbZMs05gr4a1QoAn84gcrT8oGg5/EH////muh3H1za86hUfFs+///YdWagJSJXpXuUUt1+ygFnzSUixmfOgalEUpa+3du87RxhvrtnixuLCwBsZsU6hKjpKCNGTyE5t0T80a/ES2oa2bhj1PU6+NoL1EHsZB6LvBc+DfE/Erqm2bEu2irPPiPG6awS6wiZN/LW44fSUt31nK1g3qYDYi24PZJsPSbjVQBKY44yGZ6q57u8jOD8bdRBvup9l4wyJMJFnk91barPdY7Z98HrcUqum4ZerkwFMKo4M0CiyqS8JOc+X+/lIV+mx1OuiAX4SmxyfpBB1FQDB+gDZeQgxhwzhWbUp5BFT4U82ZNCv+nOlQCLHFe0AnF4Zo/8Q7LciPrfVS695otviTjrZatLYLEtyU5sEnukZz8QceZgKzkMi1fISejnLTEOP4LZOl/ZF27Sy3a+hDR/G6dg5ALgzqVL1+2XeC8P+zI5NDb2uA2oLrXxVLcyvtMoEbnFDj0IhOxKFNbzQfdlF8zzFynUvM1kUB9Dd504fas3vWstT6xO/7Wi4htPcxW25k0lKGw+L/gZ8pORfCSU2A1+DkS7l7PGP37jzhlu7AI6b3F0272QSGvqwKx/AaZeP////pU1a8ggoLjh3/+tObDKZMzuij/acO2Zx66aX8oxL8IwWpbZbXDy/rRItUSrAifObAQyBxTz1qxyB+Jaz5iOC1thDM2LwLES4bs58HqqwapYbH+/2ZQjMSEx6HPjxdoqB8A=;" vertex="1" parent="1">
          <mxGeometry x="643" y="167" width="100" height="50" as="geometry" />
        </mxCell>
        <mxCell id="61uF1YbIP2I4fAmgQpX1-6" value="" style="endArrow=classic;html=1;rounded=0;" edge="1" parent="1">
          <mxGeometry width="50" height="50" relative="1" as="geometry">
            <mxPoint x="600" y="226" as="sourcePoint" />
            <mxPoint x="240" y="226" as="targetPoint" />
          </mxGeometry>
        </mxCell>
        <mxCell id="61uF1YbIP2I4fAmgQpX1-8" value="" style="endArrow=classic;html=1;rounded=0;" edge="1" parent="1">
          <mxGeometry width="50" height="50" relative="1" as="geometry">
            <mxPoint x="240" y="320" as="sourcePoint" />
            <mxPoint x="600" y="320" as="targetPoint" />
          </mxGeometry>
        </mxCell>
        <mxCell id="61uF1YbIP2I4fAmgQpX1-9" value="3. Insertion des données des films et series" style="edgeLabel;html=1;align=center;verticalAlign=middle;resizable=0;points=[];" vertex="1" connectable="0" parent="61uF1YbIP2I4fAmgQpX1-8">
          <mxGeometry x="0.044" y="2" relative="1" as="geometry">
            <mxPoint x="-42" y="-15" as="offset" />
          </mxGeometry>
        </mxCell>
        <mxCell id="61uF1YbIP2I4fAmgQpX1-10" value="" style="shape=image;verticalLabelPosition=bottom;labelBackgroundColor=default;verticalAlign=top;aspect=fixed;imageAspect=0;image=data:image/svg+xml,PHN2ZyB4bWxucz0iaHR0cDovL3d3dy53My5vcmcvMjAwMC9zdmciIHhtbG5zOnhsaW5rPSJodHRwOi8vd3d3LnczLm9yZy8xOTk5L3hsaW5rIiB2aWV3Qm94PSIwIDAgMzkxIDIwMiIgaGVpZ2h0PSIyMDJwdCIgd2lkdGg9IjM5MXB0Ij4mI3hhOyA8ZyBzdHlsZT0iZmlsbDojMDA2MThhOyBmaWxsLXJ1bGU6bm9uemVybzsgc3Ryb2tlOm5vbmU7IHN0cm9rZS13aWR0aDowLjg3MDg4OyBzdHJva2UtbGluZWNhcDpidXR0OyBzdHJva2UtbGluZWpvaW46bWl0ZXI7IHN0cm9rZS1kYXNoYXJyYXk6bm9uZTsiIHRyYW5zZm9ybT0idHJhbnNsYXRlKDAuNzM4MjgxLCAxMjEuNTkzKSI+JiN4YTsgIDxwYXRoIGQ9Ik0wIDYyLjIzNSBDMCA2Mi4yMzUgMTIuODQxOCA2Mi4yMzUgMTIuODQxOCA2Mi4yMzUgQzEyLjg0MTggNjIuMjM1IDEyLjg0MTggMTEuNTI0IDEyLjg0MTggMTEuNTI0IEMxMi44NDE4IDExLjUyNCAzMi43MjI2IDU1LjczMiAzMi43MjI2IDU1LjczMiBDMzUuMDY4MyA2MS4wODMgMzguMjc5MyA2Mi45NzYgNDQuNTc2MiA2Mi45NzYgQzUwLjg3NCA2Mi45NzYgNTMuOTYwOSA2MS4wODMgNTYuMzA3NiA1NS43MzIgQzU2LjMwNzYgNTUuNzMyIDc2LjE4NzUgMTEuNTI0IDc2LjE4NzUgMTEuNTI0IEM3Ni4xODc1IDExLjUyNCA3Ni4xODc1IDYyLjIzNSA3Ni4xODc1IDYyLjIzNSBDNzYuMTg3NSA2Mi4yMzUgODkuMDMwMyA2Mi4yMzUgODkuMDMwMyA2Mi4yMzUgQzg5LjAzMDMgNjIuMjM1IDg5LjAzMDMgMTEuNjA3IDg5LjAzMDMgMTEuNjA3IEM4OS4wMzAzIDYuNjY4IDg3LjA1MzcgNC4yOCA4Mi45Nzk1IDMuMDQ2IEM3My4yMjQ2IDAgNjYuNjc5NyAyLjYzNCA2My43MTU4IDkuMjIgQzYzLjcxNTggOS4yMiA0NC4yMDYgNTIuODUgNDQuMjA2IDUyLjg1IEM0NC4yMDYgNTIuODUgMjUuMzEzNSA5LjIyIDI1LjMxMzUgOS4yMiBDMjIuNDczNiAyLjYzNCAxNS44MDU2IDAgNi4wNTA3OCAzLjA0NiBDMS45NzU1OSA0LjI4IDAgNi42NjggMCAxMS42MDcgQzAgMTEuNjA3IDAgNjIuMjM1IDAgNjIuMjM1IFoiLz4mI3hhOyA8L2c+JiN4YTsgPGcgc3R5bGU9ImZpbGw6IzAwNjE4YTsgZmlsbC1ydWxlOm5vbnplcm87IHN0cm9rZTpub25lOyBzdHJva2Utd2lkdGg6MC44NzA4ODsgc3Ryb2tlLWxpbmVjYXA6YnV0dDsgc3Ryb2tlLWxpbmVqb2luOm1pdGVyOyBzdHJva2UtZGFzaGFycmF5Om5vbmU7IiB0cmFuc2Zvcm09InRyYW5zbGF0ZSgxMDAuNDQ0LCAxNDIuNDE2KSI+JiN4YTsgIDxwYXRoIGQ9Ik0wLjAwMiAwLjEzNiBDMC4wMDIgMC4xMzYgMTIuODQgMC4xMzYgMTIuODQgMC4xMzYgQzEyLjg0IDAuMTM2IDEyLjg0IDI4LjA3NCAxMi44NCAyOC4wNzQgQzEyLjcyIDI5LjU5MiAxMy4zMjcgMzMuMTU0IDIwLjM2MiAzMy4yNjUgQzIzLjk1MSAzMy4zMjEgNDguMDYyIDMzLjI2NSA0OC4yODcgMzMuMjY1IEM0OC4yODcgMzMuMjY1IDQ4LjI4NyAwIDQ4LjI4NyAwIEM0OC4yODcgMCA2MS4xNTUgMCA2MS4xNTUgMCBDNjEuMjE0IDAgNjEuMTQyIDQ1LjM2NCA2MS4xNDMgNDUuNTU3IEM2MS4yMTQgNTYuNzQ1IDQ3LjI2MSA1OS4xNzUgNDAuODMgNTkuMzYzIEM0MC44MyA1OS4zNjMgMC4yODEgNTkuMzYzIDAuMjgxIDU5LjM2MyBDMC4yODEgNTkuMzYzIDAuMjgxIDUwLjcyNCAwLjI4MSA1MC43MjQgQzAuMzUyIDUwLjcyNCA0MC44IDUwLjczMiA0MC45MDIgNTAuNzIyIEM0OS4xNjcgNDkuODQ5IDQ4LjE5MSA0NS43NDEgNDguMTkgNDQuMzU4IEM0OC4xOSA0NC4zNTggNDguMTkgNDAuOTkgNDguMTkgNDAuOTkgQzQ4LjE5IDQwLjk5IDIwLjg5NSA0MC45OSAyMC44OTUgNDAuOTkgQzguMTk2IDQwLjg3MyAwLjEwOSAzNS4zMzEgMC4wMDkgMjguOTU1IEMwIDI4LjM2NCAwLjI4MyAwLjQxNSAwLjAwMiAwLjEzNiBaIi8+JiN4YTsgPC9nPiYjeGE7IDxnIHN0eWxlPSJmaWxsOiNlNDhlMDA7IGZpbGwtcnVsZTpub256ZXJvOyBzdHJva2U6bm9uZTsgc3Ryb2tlLXdpZHRoOjAuODcwODg7IHN0cm9rZS1saW5lY2FwOmJ1dHQ7IHN0cm9rZS1saW5lam9pbjptaXRlcjsgc3Ryb2tlLWRhc2hhcnJheTpub25lOyIgdHJhbnNmb3JtPSJ0cmFuc2xhdGUoMTcxLjQ5NiwgMTI0LjU1NykiPiYjeGE7ICA8cGF0aCBkPSJNMCA1OS4yNzEgQzAgNTkuMjcxIDM2LjkyIDU5LjI3MSAzNi45MiA1OS4yNzEgQzQxLjI0MiA1OS4yNzEgNDUuNDQxIDU4LjM2NiA0OC43NzUgNTYuODAxIEM1NC4zMzEgNTQuMjUgNTcuMDQ4IDUwLjc5MyA1Ny4wNDggNDYuMjY0IEM1Ny4wNDggNDYuMjY0IDU3LjA0OCAzNi44OCA1Ny4wNDggMzYuODggQzU3LjA0OCAzMy4xNzUgNTMuOTYxIDI5LjcxNyA0Ny45MSAyNy40MTMgQzQ0LjY5OSAyNi4xNzcgNDAuNzQ4IDI1LjUxOSAzNi45MiAyNS41MTkgQzM2LjkyIDI1LjUxOSAyMS4zNjEgMjUuNTE5IDIxLjM2MSAyNS41MTkgQzE2LjE3NiAyNS41MTkgMTMuNzA2IDIzLjk1NSAxMy4wODkgMjAuNDk4IEMxMi45NjUgMjAuMDg2IDEyLjk2NSAxOS43NTYgMTIuOTY1IDE5LjM0NSBDMTIuOTY1IDE5LjM0NSAxMi45NjUgMTMuNTAxIDEyLjk2NSAxMy41MDEgQzEyLjk2NSAxMy4xNzEgMTIuOTY1IDEyLjg0MSAxMy4wODkgMTIuNDMgQzEzLjcwNiA5Ljc5NiAxNS4wNjUgOS4wNTQgMTkuNjMzIDguNjQzIEMyMC4wMDQgOC42NDMgMjAuNDk3IDguNTYgMjAuODY4IDguNTYgQzIwLjg2OCA4LjU2IDU3LjU0MiA4LjU2IDU3LjU0MiA4LjU2IEM1Ny41NDIgOC41NiA1Ny41NDIgMCA1Ny41NDIgMCBDNTcuNTQyIDAgMjEuNDg1IDAgMjEuNDg1IDAgQzE2LjI5OSAwIDEzLjU4MiAwLjMyOSAxMS4xMTMgMS4wNjkgQzMuNDU3IDMuNDU3IDAuMTIzIDcuMjQ0IDAuMTIzIDEzLjgzIEMwLjEyMyAxMy44MyAwLjEyMyAyMS4zMjEgMC4xMjMgMjEuMzIxIEMwLjEyMyAyNy4wODQgNi42NjggMzIuMDIzIDE3LjY1NyAzMy4xNzUgQzE4Ljg5MyAzMy4yNTcgMjAuMTI3IDMzLjMzOSAyMS4zNjEgMzMuMzM5IEMyMS4zNjEgMzMuMzM5IDM0LjY5NyAzMy4zMzkgMzQuNjk3IDMzLjMzOSBDMzUuMTkyIDMzLjMzOSAzNS42ODYgMzMuMzM5IDM2LjA1NiAzMy40MjIgQzQwLjEzMSAzMy43NTIgNDEuODU5IDM0LjQ5MiA0My4wOTUgMzUuOTc0IEM0My44MzUgMzYuNzE0IDQ0LjA4MiAzNy40NTYgNDQuMDgyIDM4LjI3OSBDNDQuMDgyIDM4LjI3OSA0NC4wODIgNDUuNzcgNDQuMDgyIDQ1Ljc3IEM0NC4wODIgNDYuNjc2IDQzLjQ2NSA0Ny44MjkgNDIuMjMxIDQ4LjgxNiBDNDEuMTE5IDQ5LjgwNCAzOS4yNjcgNTAuNDYzIDM2Ljc5NyA1MC42MjggQzM2LjMwMyA1MC42MjggMzUuOTMzIDUwLjcxIDM1LjQzOSA1MC43MSBDMzUuNDM5IDUwLjcxIDAgNTAuNzEgMCA1MC43MSBDMCA1MC43MSAwIDU5LjI3MSAwIDU5LjI3MSBaIi8+JiN4YTsgPC9nPiYjeGE7IDxnIHN0eWxlPSJmaWxsOiNlNDhlMDA7IGZpbGwtcnVsZTpub256ZXJvOyBzdHJva2U6bm9uZTsgc3Ryb2tlLXdpZHRoOjAuODcwODg7IHN0cm9rZS1saW5lY2FwOmJ1dHQ7IHN0cm9rZS1saW5lam9pbjptaXRlcjsgc3Ryb2tlLWRhc2hhcnJheTpub25lOyIgdHJhbnNmb3JtPSJ0cmFuc2xhdGUoMzA4LjY1NiwgMTI0LjU1NykiPiYjeGE7ICA8cGF0aCBkPSJNMCA0NC4zNzEgQzAgNTMuMTc5IDYuNTQ0IDU4LjExOSAxOS43NTcgNTkuMTA3IEMyMC45OTEgNTkuMTg5IDIyLjIyNyA1OS4yNzEgMjMuNDYxIDU5LjI3MSBDMjMuNDYxIDU5LjI3MSA1Ni45MjUgNTkuMjcxIDU2LjkyNSA1OS4yNzEgQzU2LjkyNSA1OS4yNzEgNTYuOTI1IDUwLjcxIDU2LjkyNSA1MC43MSBDNTYuOTI1IDUwLjcxIDIzLjIxNCA1MC43MSAyMy4yMTQgNTAuNzEgQzE1LjY4MiA1MC43MSAxMi44NDIgNDguODE2IDEyLjg0MiA0NC4yODkgQzEyLjg0MiA0NC4yODkgMTIuODQyIDAgMTIuODQyIDAgQzEyLjg0MiAwIDAgMCAwIDAgQzAgMCAwIDQ0LjM3MSAwIDQ0LjM3MSBaIi8+JiN4YTsgPC9nPiYjeGE7IDxnIHN0eWxlPSJmaWxsOiNlNDhlMDA7IGZpbGwtcnVsZTpub256ZXJvOyBzdHJva2U6bm9uZTsgc3Ryb2tlLXdpZHRoOjAuODcwODg7IHN0cm9rZS1saW5lY2FwOmJ1dHQ7IHN0cm9rZS1saW5lam9pbjptaXRlcjsgc3Ryb2tlLWRhc2hhcnJheTpub25lOyIgdHJhbnNmb3JtPSJ0cmFuc2xhdGUoMjM2Ljc0LCAxMjQuNjY2KSI+JiN4YTsgIDxwYXRoIGQ9Ik0wIDQ0LjcxMSBDMCA0NC43MTEgMCAxNC4xODkgMCAxNC4xODkgQzAgNi40MzUgNS40NDUgMS43MzIgMTYuMjA5IDAuMjQ3IEMxNy4zMjMgMC4wODMgMTguNTYxIDAgMTkuNjc0IDAgQzE5LjY3NCAwIDQ0LjA1IDAgNDQuMDUgMCBDNDUuMjg3IDAgNDYuNDAyIDAuMDgzIDQ3LjYzOSAwLjI0NyBDNTguNDA0IDEuNzMyIDYzLjg0OCA2LjQzNSA2My44NDggMTQuMTg5IEM2My44NDggMTQuMTg5IDYzLjg0OCA0NC43MTEgNjMuODQ4IDQ0LjcxMSBDNjMuODQ4IDUxLjAwMiA2MS41MzYgNTQuMzY5IDU2LjIwNyA1Ni41NjMgQzU2LjIwNyA1Ni41NjMgNjguODU3IDY3Ljk4MSA2OC44NTcgNjcuOTgxIEM2OC44NTcgNjcuOTgxIDUzLjk0NiA2Ny45ODEgNTMuOTQ2IDY3Ljk4MSBDNTMuOTQ2IDY3Ljk4MSA0My43MTIgNTguNzQzIDQzLjcxMiA1OC43NDMgQzQzLjcxMiA1OC43NDMgMzMuNDA5IDU5LjM5NiAzMy40MDkgNTkuMzk2IEMzMy40MDkgNTkuMzk2IDE5LjY3NCA1OS4zOTYgMTkuNjc0IDU5LjM5NiBDMTcuMzIzIDU5LjM5NiAxNC44NDkgNTkuMDY1IDEyLjEyNiA1OC4zMjMgQzMuOTYgNTYuMDk2IDAgNTEuODA2IDAgNDQuNzExIFogTTEzLjg2MSA0My45NjkgQzEzLjg2MSA0NC4zODIgMTMuOTg0IDQ0Ljc5NCAxNC4xMDggNDUuMjg5IEMxNC44NSA0OC44MzYgMTguMTkxIDUwLjgxNiAyMy4yNjQgNTAuODE2IEMyMy4yNjQgNTAuODE2IDM0LjkzMSA1MC44MTYgMzQuOTMxIDUwLjgxNiBDMzQuOTMxIDUwLjgxNiAyNC4yMTQgNDEuMTQxIDI0LjIxNCA0MS4xNDEgQzI0LjIxNCA0MS4xNDEgMzkuMTI1IDQxLjE0MSAzOS4xMjUgNDEuMTQxIEMzOS4xMjUgNDEuMTQxIDQ4LjQ3MiA0OS41NzkgNDguNDcyIDQ5LjU3OSBDNTAuMTk0IDQ4LjY2MSA1MS4zMjggNDcuMjU3IDUxLjcyNCA0NS40NTQgQzUxLjg0NyA0NS4wNDIgNTEuODQ3IDQ0LjYyOSA1MS44NDcgNDQuMjE3IEM1MS44NDcgNDQuMjE3IDUxLjg0NyAxNC45MzIgNTEuODQ3IDE0LjkzMiBDNTEuODQ3IDE0LjYwMiA1MS44NDcgMTQuMTg5IDUxLjcyNCAxMy43NzYgQzUwLjk4MSAxMC40NzcgNDcuNjQgOC41OCA0Mi42OTEgOC41OCBDNDIuNjkxIDguNTggMjMuMjY0IDguNTggMjMuMjY0IDguNTggQzE3LjU3MyA4LjU4IDEzLjg2MSAxMS4wNTUgMTMuODYxIDE0LjkzMiBDMTMuODYxIDE0LjkzMiAxMy44NjEgNDMuOTY5IDEzLjg2MSA0My45NjkgWiIvPiYjeGE7IDwvZz4mI3hhOyA8ZyBzdHlsZT0iZmlsbDojMDA2MThhOyBmaWxsLXJ1bGU6bm9uemVybzsgc3Ryb2tlOm5vbmU7IHN0cm9rZS13aWR0aDowLjg3MDg4OyBzdHJva2UtbGluZWNhcDpidXR0OyBzdHJva2UtbGluZWpvaW46bWl0ZXI7IHN0cm9rZS1kYXNoYXJyYXk6bm9uZTsiIHRyYW5zZm9ybT0idHJhbnNsYXRlKDI0MS41OSwgLTQuNjQyNTgpIj4mI3hhOyAgPHBhdGggZD0iTTEzNS4yODkgMTE0Ljk5NyBDMTI3LjM5NSAxMTQuNzgzIDEyMS4zNjUgMTE1LjUxNyAxMTYuMjEgMTE3LjY5MSBDMTE0Ljc0NSAxMTguMzA5IDExMi40MDkgMTE4LjMyNSAxMTIuMTcgMTIwLjE2MSBDMTEyLjk3NSAxMjEuMDA1IDExMy4xIDEyMi4yNjUgMTEzLjc0IDEyMy4zMDMgQzExNC45NzEgMTI1LjI5NSAxMTcuMDQ5IDEyNy45NjQgMTE4LjkwMyAxMjkuMzY0IEMxMjAuOTI5IDEzMC44OTMgMTIzLjAxNyAxMzIuNTI5IDEyNS4xODkgMTMzLjg1MyBDMTI5LjA1MiAxMzYuMjA5IDEzMy4zNjUgMTM3LjU1NCAxMzcuMDg1IDEzOS45MTQgQzEzOS4yNzcgMTQxLjMwNSAxNDEuNDU1IDE0My4wNTcgMTQzLjU5NCAxNDQuNjI3IEMxNDQuNjUxIDE0NS40MDMgMTQ1LjM2MiAxNDYuNjEgMTQ2LjczNiAxNDcuMDk2IEMxNDYuNzM2IDE0Ny4wMjIgMTQ2LjczNiAxNDYuOTQ3IDE0Ni43MzYgMTQ2Ljg3MiBDMTQ2LjAxNCAxNDUuOTUzIDE0NS44MjggMTQ0LjY4OSAxNDUuMTY1IDE0My43MjkgQzE0NC4xOTMgMTQyLjc1NyAxNDMuMjIgMTQxLjc4NCAxNDIuMjQ3IDE0MC44MTEgQzEzOS4zOTQgMTM3LjAyNCAxMzUuNzcyIDEzMy42OTggMTMxLjkyMiAxMzAuOTM1IEMxMjguODUyIDEyOC43MzEgMTIxLjk4IDEyNS43NTQgMTIwLjY5OSAxMjIuMTgxIEMxMjAuNjI0IDEyMi4xMDYgMTIwLjU1IDEyMi4wMzEgMTIwLjQ3NCAxMjEuOTU2IEMxMjIuNjUxIDEyMS43MTEgMTI1LjIgMTIwLjkyMyAxMjcuMjA5IDEyMC4zODUgQzEzMC41ODQgMTE5LjQ4IDEzMy42IDExOS43MTQgMTM3LjA4NSAxMTguODE0IEMxMzguNjU2IDExOC4zNjUgMTQwLjIyNyAxMTcuOTE1IDE0MS43OTkgMTE3LjQ2NyBDMTQxLjc5OSAxMTcuMTY3IDE0MS43OTkgMTE2Ljg2OSAxNDEuNzk5IDExNi41NjkgQzE0MC4wMzcgMTE0Ljc2MSAxMzguNzgxIDExMi4zNjkgMTM2Ljg2IDExMC43MzMgQzEzMS44MzQgMTA2LjQ1MyAxMjYuMzQ4IDEwMi4xNzcgMTIwLjY5OSA5OC42MTE0IEMxMTcuNTY2IDk2LjYzMzggMTEzLjY5NCA5NS4zNDg3IDExMC4zNzQgOTMuNjcyOSBDMTA5LjI1NyA5My4xMDk0IDEwNy4yOTUgOTIuODE2NCAxMDYuNTU3IDkxLjg3NyBDMTA0LjgxMyA4OS42NTMzIDEwMy44NjMgODYuODM1IDEwMi41MTggODQuMjQ1MSBDOTkuNyA3OC44MTk0IDk2LjkzMyA3Mi44OTM2IDk0LjQzNyA2Ny4xODU2IEM5Mi43MzQgNjMuMjkzIDkxLjYyMiA1OS40NTQxIDg5LjQ5OSA1NS45NjE5IEM3OS4zMDcgMzkuMjA1MSA2OC4zMzYgMjkuMDkwOCA1MS4zNDEgMTkuMTQ5NCBDNDcuNzI1IDE3LjAzNTIgNDMuMzcxIDE2LjIwMDIgMzguNzcgMTUuMTA5NCBDMzYuMzAyIDE0Ljk2IDMzLjgzMiAxNC44MDk2IDMxLjM2MyAxNC42NjAyIEMyOS44NTYgMTQuMDMwMyAyOC4yODggMTIuMTg2NSAyNi44NzQgMTEuMjkzIEMyMS4yNDQgNy43MzYzMyA2LjgwMyAwIDIuNjMzIDEwLjE3MDkgQzAgMTYuNTkwOCA2LjU2OCAyMi44NTU1IDguOTE3IDI2LjEwODQgQzEwLjU2NiAyOC4zOTA2IDEyLjY3NyAzMC45NDkyIDEzLjg1NSAzMy41MTU2IEMxNC42MyAzNS4yMDIyIDE0Ljc2NCAzNi44OTM2IDE1LjQyNyAzOC42Nzg3IEMxNy4wNTkgNDMuMDc1MiAxOC40NzggNDcuODU4NCAyMC41ODkgNTEuOTIxOSBDMjEuNjU2IDUzLjk3NzYgMjIuODMyIDU2LjE0MzYgMjQuMTgxIDU3Ljk4MjQgQzI1LjAwOCA1OS4xMTA0IDI2LjQyNSA1OS42MDc0IDI2LjY0OSA2MS4zNDk2IEMyNS4yNjMgNjMuMjg5MSAyNS4xODQgNjYuMjk5OCAyNC40MDUgNjguNzU2OSBDMjAuODk3IDc5LjgxODQgMjIuMjIgOTMuNTY3NCAyNy4zMjMgMTAxLjc1NCBDMjguODg5IDEwNC4yNjcgMzIuNTc3IDEwOS42NTcgMzcuNjQ4IDEwNy41OSBDNDIuMDg0IDEwNS43ODMgNDEuMDkzIDEwMC4xODQgNDIuMzYyIDk1LjI0NDIgQzQyLjY0OSA5NC4xMjQgNDIuNDczIDkzLjMwMDggNDMuMDM1IDkyLjU1MDggQzQzLjAzNSA5Mi42MjUgNDMuMDM1IDkyLjcwMDIgNDMuMDM1IDkyLjc3NTQgQzQ0LjM4MiA5NS40Njg4IDQ1LjcyOSA5OC4xNjIxIDQ3LjA3NiAxMDAuODU1IEM1MC4wNjYgMTA1LjY3MSA1NS4zNzMgMTEwLjcwNCA1OS44NyAxMTQuMSBDNjIuMjAyIDExNS44NjEgNjQuMDM4IDExOC45MDYgNjcuMDUzIDExOS45MzYgQzY3LjA1MyAxMTkuODYxIDY3LjA1MyAxMTkuNzg3IDY3LjA1MyAxMTkuNzExIEM2Ni45NzcgMTE5LjcxMSA2Ni45MDMgMTE5LjcxMSA2Ni44MjggMTE5LjcxMSBDNjYuMjQ0IDExOC44IDY1LjMzIDExOC40MjMgNjQuNTg0IDExNy42OTEgQzYyLjgyNyAxMTUuOTY5IDYwLjg3NCAxMTMuODI4IDU5LjQyMSAxMTEuODU1IEM1NS4zMzEgMTA2LjMwMiA1MS43MTYgMTAwLjIyNCA0OC40MjMgOTMuODk3NSBDNDYuODUgOTAuODc3IDQ1LjQ4MyA4Ny41NDQgNDQuMTU3IDg0LjQ2OTcgQzQzLjY0NiA4My4yODQyIDQzLjY1MiA4MS40OTIyIDQyLjU4NyA4MC44NzggQzQxLjEzNSA4My4xMzA5IDM4Ljk5NiA4NC45NTIyIDM3Ljg3MyA4Ny42MTIzIEMzNi4wNzcgOTEuODY0MyAzNS44NDUgOTcuMDQ5OCAzNS4xOCAxMDIuNDI3IEMzNC43ODYgMTAyLjU2OCAzNC45NjEgMTAyLjQ3MSAzNC43MyAxMDIuNjUxIEMzMS42MDQgMTAxLjg5NyAzMC41MDUgOTguNjc4NyAyOS4zNDQgOTUuOTE4IEMyNi40MDUgODguOTM1NiAyNS44NTkgNzcuNjkyNCAyOC40NDUgNjkuNjU1MyBDMjkuMTE0IDY3LjU3NjIgMzIuMTM4IDYxLjAyNjQgMzAuOTE0IDU5LjEwNTUgQzMwLjMzIDU3LjE4ODUgMjguNDAyIDU2LjA4MDEgMjcuMzIzIDU0LjYxNTMgQzI1Ljk4OCA1Mi44MDQ3IDI0LjY1NSA1MC40MjA5IDIzLjczMSA0OC4zMzAxIEMyMS4zMjYgNDIuODg1OCAyMC4yMDMgMzYuNzc0NCAxNy42NzEgMzEuMjcxNSBDMTYuNDYxIDI4LjY0MDYgMTQuNDE0IDI1Ljk3ODUgMTIuNzMzIDIzLjYzOTcgQzEwLjg3MiAyMS4wNDg5IDguNzg4IDE5LjE0MDYgNy4zNDYgMTYuMDA2OSBDNi44MzMgMTQuODkzNiA2LjEzNiAxMy4xMTEzIDYuODk3IDExLjk2NjggQzcuMTM5IDExLjE5NDMgNy40OCAxMC44NzIxIDguMjQ0IDEwLjYyMDEgQzkuNTQ2IDkuNjE2MjEgMTMuMTcyIDEwLjk1NDEgMTQuNTI4IDExLjUxNzYgQzE4LjEyOCAxMy4wMTI3IDIxLjEzMiAxNC40MzY1IDI0LjE4MSAxNi40NTYxIEMyNS42NDUgMTcuNDI2OCAyNy4xMjUgMTkuMzAzNyAyOC44OTQgMTkuODIzMyBDMjkuNTY3IDE5LjgyMzMgMzAuMjQxIDE5LjgyMzMgMzAuOTE0IDE5LjgyMzMgQzM0LjA3NCAyMC41NDk4IDM3LjYxNCAyMC4wNDg5IDQwLjU2NiAyMC45NDUzIEM0NS43ODQgMjIuNTMxMyA1MC40NiAyNC45OTgxIDU0LjcwNyAyNy42Nzk3IEM2Ny42NDUgMzUuODQ4NyA3OC4yMjMgNDcuNDc3NiA4NS40NTkgNjEuMzQ5NiBDODYuNjIzIDYzLjU4MyA4Ny4xMjcgNjUuNzE0OSA4OC4xNTIgNjguMDg0IEM5MC4yMjEgNzIuODYxNCA5Mi44MjcgNzcuNzc3NCA5NC44ODUgODIuNDQ5MiBDOTYuOTM5IDg3LjExMDQgOTguOTQxIDkxLjgxNDUgMTAxLjg0NCA5NS42OTM0IEMxMDMuMzcxIDk3LjczMjQgMTA5LjI2NiA5OC44MjYyIDExMS45NDUgOTkuOTU4IEMxMTMuODIzIDEwMC43NTIgMTE2LjkgMTAxLjU3OSAxMTguNjc5IDEwMi42NTEgQzEyMi4wNzcgMTA0LjcwMSAxMjUuMzY5IDEwNy4xNDEgMTI4LjU1NiAxMDkuMzg2IEMxMzAuMTQ5IDExMC41MDggMTM1LjA0NSAxMTIuOTY5IDEzNS4yODkgMTE0Ljk5NyBaIi8+JiN4YTsgPC9nPiYjeGE7IDxnIHN0eWxlPSJmaWxsOiMwMDYxOGE7IGZpbGwtcnVsZTpldmVub2RkOyBzdHJva2U6bm9uZTsgc3Ryb2tlLXdpZHRoOjAuODcwODg7IHN0cm9rZS1saW5lY2FwOmJ1dHQ7IHN0cm9rZS1saW5lam9pbjptaXRlcjsgc3Ryb2tlLWRhc2hhcnJheTpub25lOyIgdHJhbnNmb3JtPSJ0cmFuc2xhdGUoMjcyLjUwNCwgMjQuODAyNykiPiYjeGE7ICA8cGF0aCBkPSJNNC4wNDEgMC4wMzAzIEMyLjM5NSAwIDEuMjMxIDAuMjEgMCAwLjQ3ODYgQzAgMC41NTM3IDAgMC42Mjg5IDAgMC43MDMyIEMwLjA3NSAwLjcwMzIgMC4xNSAwLjcwMzIgMC4yMjUgMC43MDMyIEMxLjAxIDIuMzE2NCAyLjM5NiAzLjM1NDUgMy4zNjcgNC43NDQyIEM0LjExNSA2LjMxNTUgNC44NjMgNy44ODY4IDUuNjEyIDkuNDU3MSBDNS42ODYgOS4zODI4IDUuNzYyIDkuMzA3NyA1LjgzNiA5LjIzMzQgQzcuMjI2IDguMjUzOSA3Ljg2MyA2LjY4NjYgNy44NTYgNC4yOTUgQzcuMjk5IDMuNzA5IDcuMjE3IDIuOTczNyA2LjczNCAyLjI3NDQgQzYuMDkyIDEuMzQyOCA0Ljg1IDAuODEzNSA0LjA0MSAwLjAzMDMgWiIvPiYjeGE7IDwvZz4mI3hhOyA8ZyBzdHlsZT0iZmlsbDojZTQ4ZTAwOyBmaWxsLXJ1bGU6ZXZlbm9kZDsgc3Ryb2tlOm5vbmU7IHN0cm9rZS13aWR0aDoxOyBzdHJva2UtbGluZWNhcDpidXR0OyBzdHJva2UtbGluZWpvaW46bWl0ZXI7IHN0cm9rZS1kYXNoYXJyYXk6bm9uZTsiIHRyYW5zZm9ybT0idHJhbnNsYXRlKDM3MS42MDksIDE2NS41NikiPiYjeGE7ICA8cGF0aCBkPSJNMCA5LjQ2MyBDMCAxNS4xMTcgNC40NjcgMTguOTI3IDkuNDY0IDE4LjkyNyBDMTQuNDYxIDE4LjkyNyAxOC45MjggMTUuMTE3IDE4LjkyOCA5LjQ2MyBDMTguOTI4IDMuODEgMTQuNDYxIDAgOS40NjQgMCBDNC40NjcgMCAwIDMuODEgMCA5LjQ2MyBaIE0xNi44MDggOS40NjMgQzE2LjgwOCAxMy43NTMgMTMuNTI4IDE2Ljk1OSA5LjQ2NCAxNi45NTkgQzUuMzUxIDE2Ljk1OSAyLjEyIDEzLjc1MyAyLjEyIDkuNDYzIEMyLjEyIDUuMTczIDUuMzUxIDEuOTY3IDkuNDY0IDEuOTY3IEMxMy41MjggMS45NjcgMTYuODA4IDUuMTczIDE2LjgwOCA5LjQ2MyBaIE0xMi4wMTQgMTQuODY0IEMxMi4wMTQgMTQuODY0IDE0LjEzMyAxNC44NjQgMTQuMTMzIDE0Ljg2NCBDMTQuMTMzIDE0Ljg2NCAxMS4wMyAxMC4xMiAxMS4wMyAxMC4xMiBDMTIuNjk1IDkuOTQzIDEzLjk1NiA5LjEzNSAxMy45NTYgNy4xNjcgQzEzLjk1NiA0Ljk3MSAxMi41NjkgNC4wNjMgOS44OTQgNC4wNjMgQzkuODk0IDQuMDYzIDUuNjc5IDQuMDYzIDUuNjc5IDQuMDYzIEM1LjY3OSA0LjA2MyA1LjY3OSAxNC44NjQgNS42NzkgMTQuODY0IEM1LjY3OSAxNC44NjQgNy40OTYgMTQuODY0IDcuNDk2IDE0Ljg2NCBDNy40OTYgMTQuODY0IDcuNDk2IDEwLjE5NSA3LjQ5NiAxMC4xOTUgQzcuNDk2IDEwLjE5NSA5LjE4NyAxMC4xOTUgOS4xODcgMTAuMTk1IEM5LjE4NyAxMC4xOTUgMTIuMDE0IDE0Ljg2NCAxMi4wMTQgMTQuODY0IFogTTcuNDk2IDguNjgxIEM3LjQ5NiA4LjY4MSA3LjQ5NiA1LjU3NyA3LjQ5NiA1LjU3NyBDNy40OTYgNS41NzcgOS41OSA1LjU3NyA5LjU5IDUuNTc3IEMxMC42NzYgNS41NzcgMTEuOTg4IDUuNzc5IDExLjk4OCA3LjA0MSBDMTEuOTg4IDguNTU0IDEwLjgwMiA4LjY4MSA5LjQzOSA4LjY4MSBDOS40MzkgOC42ODEgNy40OTYgOC42ODEgNy40OTYgOC42ODEgWiIvPiYjeGE7IDwvZz4mI3hhOzwvc3ZnPg==;" vertex="1" parent="1">
          <mxGeometry x="631" y="284.5" width="88.07" height="45.5" as="geometry" />
        </mxCell>
        <mxCell id="61uF1YbIP2I4fAmgQpX1-11" value="" style="sketch=0;points=[[0,0,0],[0.25,0,0],[0.5,0,0],[0.75,0,0],[1,0,0],[0,1,0],[0.25,1,0],[0.5,1,0],[0.75,1,0],[1,1,0],[0,0.25,0],[0,0.5,0],[0,0.75,0],[1,0.25,0],[1,0.5,0],[1,0.75,0]];outlineConnect=0;fontColor=#232F3E;fillColor=#7AA116;strokeColor=#ffffff;dashed=0;verticalLabelPosition=bottom;verticalAlign=top;align=center;html=1;fontSize=12;fontStyle=0;aspect=fixed;shape=mxgraph.aws4.resourceIcon;resIcon=mxgraph.aws4.s3;" vertex="1" parent="1">
          <mxGeometry x="654" y="398" width="50" height="50" as="geometry" />
        </mxCell>
        <mxCell id="61uF1YbIP2I4fAmgQpX1-12" value="" style="endArrow=classic;html=1;rounded=0;" edge="1" parent="1">
          <mxGeometry width="50" height="50" relative="1" as="geometry">
            <mxPoint x="240" y="440" as="sourcePoint" />
            <mxPoint x="600" y="440" as="targetPoint" />
          </mxGeometry>
        </mxCell>
        <mxCell id="61uF1YbIP2I4fAmgQpX1-13" value="&lt;span style=&quot;color: rgb(0, 0, 0); font-family: Helvetica; font-size: 11px; font-style: normal; font-variant-ligatures: normal; font-variant-caps: normal; font-weight: 400; letter-spacing: normal; orphans: 2; text-align: center; text-indent: 0px; text-transform: none; widows: 2; word-spacing: 0px; -webkit-text-stroke-width: 0px; white-space: nowrap; background-color: rgb(255, 255, 255); text-decoration-thickness: initial; text-decoration-style: initial; text-decoration-color: initial; display: inline !important; float: none;&quot;&gt;4. Insertion des fichiers (images, videos)&lt;/span&gt;" style="text;whiteSpace=wrap;html=1;" vertex="1" parent="1">
          <mxGeometry x="280" y="410" width="240" height="40" as="geometry" />
        </mxCell>
        <mxCell id="61uF1YbIP2I4fAmgQpX1-14" value="AWS S3&lt;div&gt;(Scalable Storage Service)&lt;/div&gt;" style="text;html=1;align=center;verticalAlign=middle;resizable=0;points=[];autosize=1;strokeColor=none;fillColor=none;" vertex="1" parent="1">
          <mxGeometry x="593" y="451" width="170" height="40" as="geometry" />
        </mxCell>
        <mxCell id="61uF1YbIP2I4fAmgQpX1-15" value="MySQL Database" style="text;html=1;align=center;verticalAlign=middle;resizable=0;points=[];autosize=1;strokeColor=none;fillColor=none;" vertex="1" parent="1">
          <mxGeometry x="617" y="340" width="120" height="30" as="geometry" />
        </mxCell>
        <mxCell id="61uF1YbIP2I4fAmgQpX1-16" value="&lt;span style=&quot;font-size: 11px; background-color: rgb(255, 255, 255);&quot;&gt;2. Reponse avec Page HTML&lt;/span&gt;" style="text;html=1;align=center;verticalAlign=middle;resizable=0;points=[];autosize=1;strokeColor=none;fillColor=none;" vertex="1" parent="1">
          <mxGeometry x="271" y="200" width="170" height="30" as="geometry" />
        </mxCell>
        <mxCell id="61uF1YbIP2I4fAmgQpX1-17" value="Schéma du processus de scraping" style="rounded=0;whiteSpace=wrap;html=1;fillColor=#f0a30a;fontColor=#FFFFFF;strokeColor=#BD7000;fontStyle=1;fontSize=16;" vertex="1" parent="1">
          <mxGeometry x="160" y="80" width="520" height="40" as="geometry" />
        </mxCell>
        <mxCell id="61uF1YbIP2I4fAmgQpX1-18" value="Plateforme de streaming&amp;nbsp;&lt;div&gt;Hulu&lt;/div&gt;" style="text;html=1;align=center;verticalAlign=middle;resizable=0;points=[];autosize=1;strokeColor=none;fillColor=none;" vertex="1" parent="1">
          <mxGeometry x="620" y="219" width="160" height="40" as="geometry" />
        </mxCell>
      </root>
    </mxGraphModel>
  </diagram>
</mxfile>
